<?xml version="1.0" standalone="no"?>
<!DOCTYPE svg PUBLIC "-//W3C//DTD SVG 20010904//EN"
 "http://www.w3.org/TR/2001/REC-SVG-20010904/DTD/svg10.dtd">
<svg version="1.0" xmlns="http://www.w3.org/2000/svg"
 width="200.000000pt" height="200.000000pt" viewBox="0 0 200.000000 200.000000"
 preserveAspectRatio="xMidYMid meet">
<metadata>
Created by potrace 1.14, written by Peter Selinger 2001-2017
</metadata>
<g transform="translate(0.000000,200.000000) scale(0.100000,-0.100000)"
fill="#000000" stroke="none">
<path d="M848 1980 c-232 -48 -379 -127 -538 -289 -185 -188 -276 -402 -284
-667 -15 -436 266 -835 685 -973 68 -22 84 -26 174 -41 51 -8 273 -6 310 3 11
3 40 10 65 16 212 50 417 181 556 357 84 107 177 311 154 339 -6 7 -31 16 -55
20 -29 4 -62 19 -91 41 -59 45 -86 55 -159 58 -39 2 -75 10 -103 25 -47 24
-81 28 -154 16 -36 -6 -59 -3 -94 10 -25 9 -46 16 -48 14 -1 -2 -14 -23 -29
-47 -73 -114 -219 -152 -334 -86 -156 90 -179 295 -45 416 43 39 125 70 164
63 33 -7 58 4 58 24 0 10 23 39 50 64 57 52 68 76 77 156 7 70 22 108 60 152
49 56 66 97 60 147 -3 25 0 56 5 68 22 48 -8 88 -82 106 -19 5 -44 11 -55 14
-54 15 -263 11 -347 -6z"/>
</g>
</svg>
