<svg width="32" height="32" viewBox="0 0 32 32" fill="none" xmlns="http://www.w3.org/2000/svg">
<g clip-path="url(#clip0_526_11101)">
<path d="M16.0001 11.9998C14.9392 11.9998 13.9218 12.4213 13.1717 13.1714C12.4215 13.9216 12.0001 14.939 12.0001 15.9998C12.0001 17.0607 12.4215 18.0781 13.1717 18.8283C13.9218 19.5784 14.9392 19.9998 16.0001 19.9998C17.0609 19.9998 18.0784 19.5784 18.8285 18.8283C19.5787 18.0781 20.0001 17.0607 20.0001 15.9998C20.0001 14.939 19.5787 13.9216 18.8285 13.1714C18.0784 12.4213 17.0609 11.9998 16.0001 11.9998ZM16.0001 9.33317C17.7682 9.33317 19.4639 10.0355 20.7141 11.2858C21.9644 12.536 22.6667 14.2317 22.6667 15.9998C22.6667 17.7679 21.9644 19.4636 20.7141 20.7139C19.4639 21.9641 17.7682 22.6665 16.0001 22.6665C14.232 22.6665 12.5363 21.9641 11.286 20.7139C10.0358 19.4636 9.33341 17.7679 9.33341 15.9998C9.33341 14.2317 10.0358 12.536 11.286 11.2858C12.5363 10.0355 14.232 9.33317 16.0001 9.33317ZM24.6667 8.99984C24.6667 9.44186 24.4912 9.86579 24.1786 10.1783C23.866 10.4909 23.4421 10.6665 23.0001 10.6665C22.5581 10.6665 22.1341 10.4909 21.8216 10.1783C21.509 9.86579 21.3334 9.44186 21.3334 8.99984C21.3334 8.55781 21.509 8.13389 21.8216 7.82133C22.1341 7.50877 22.5581 7.33317 23.0001 7.33317C23.4421 7.33317 23.866 7.50877 24.1786 7.82133C24.4912 8.13389 24.6667 8.55781 24.6667 8.99984ZM16.0001 5.33317C12.7014 5.33317 12.1627 5.3425 10.6281 5.4105C9.58275 5.45984 8.88141 5.59984 8.23075 5.85317C7.65208 6.07717 7.23475 6.34517 6.79075 6.7905C6.37342 7.1937 6.05255 7.68595 5.85208 8.2305C5.59875 8.88384 5.45875 9.58384 5.41075 10.6278C5.34141 12.0998 5.33341 12.6145 5.33341 15.9998C5.33341 19.2985 5.34275 19.8372 5.41075 21.3718C5.46008 22.4158 5.60008 23.1185 5.85208 23.7678C6.07875 24.3478 6.34541 24.7652 6.78808 25.2078C7.23741 25.6558 7.65475 25.9238 8.22808 26.1452C8.88675 26.3998 9.58808 26.5412 10.6281 26.5892C12.1001 26.6585 12.6147 26.6665 16.0001 26.6665C19.2987 26.6665 19.8374 26.6572 21.3721 26.5892C22.4147 26.5398 23.1174 26.3998 23.7681 26.1478C24.3454 25.9225 24.7654 25.6545 25.2081 25.2118C25.6574 24.7625 25.9254 24.3452 26.1467 23.7718C26.4001 23.1145 26.5414 22.4118 26.5894 21.3718C26.6587 19.8998 26.6667 19.3852 26.6667 15.9998C26.6667 12.7012 26.6574 12.1625 26.5894 10.6278C26.5401 9.58517 26.4001 8.88117 26.1467 8.2305C25.9458 7.68651 25.6255 7.19445 25.2094 6.7905C24.8064 6.37297 24.3141 6.05206 23.7694 5.85184C23.1161 5.5985 22.4147 5.4585 21.3721 5.4105C19.9001 5.34117 19.3854 5.33317 16.0001 5.33317ZM16.0001 2.6665C19.6227 2.6665 20.0747 2.67984 21.4961 2.7465C22.9161 2.81317 23.8827 3.03584 24.7334 3.3665C25.6134 3.70517 26.3547 4.16384 27.0961 4.90384C27.7741 5.57036 28.2987 6.37662 28.6334 7.2665C28.9627 8.11584 29.1867 9.08384 29.2534 10.5038C29.3161 11.9252 29.3334 12.3772 29.3334 15.9998C29.3334 19.6225 29.3201 20.0745 29.2534 21.4958C29.1867 22.9158 28.9627 23.8825 28.6334 24.7332C28.2996 25.6235 27.7749 26.43 27.0961 27.0958C26.4294 27.7736 25.6232 28.2982 24.7334 28.6332C23.8841 28.9625 22.9161 29.1865 21.4961 29.2532C20.0747 29.3158 19.6227 29.3332 16.0001 29.3332C12.3774 29.3332 11.9254 29.3198 10.5041 29.2532C9.08408 29.1865 8.11741 28.9625 7.26675 28.6332C6.37652 28.2991 5.57012 27.7744 4.90408 27.0958C4.22596 26.4294 3.70132 25.6231 3.36675 24.7332C3.03608 23.8838 2.81341 22.9158 2.74675 21.4958C2.68408 20.0745 2.66675 19.6225 2.66675 15.9998C2.66675 12.3772 2.68008 11.9252 2.74675 10.5038C2.81341 9.0825 3.03608 8.11717 3.36675 7.2665C3.7004 6.37608 4.22515 5.5696 4.90408 4.90384C5.57031 4.22548 6.37665 3.70081 7.26675 3.3665C8.11741 3.03584 9.08275 2.81317 10.5041 2.7465C11.9254 2.68384 12.3774 2.6665 16.0001 2.6665Z" fill="#474747"/>
</g>
<defs>
<clipPath id="clip0_526_11101">
<rect width="32" height="32" fill="white"/>
</clipPath>
</defs>
</svg>
