<svg width="16" height="16" viewBox="0 0 16 16" fill="none" xmlns="http://www.w3.org/2000/svg">
<path fill-rule="evenodd" clip-rule="evenodd" d="M13 6.25001V4.06067L7.53029 9.53034C7.2374 9.82323 6.76253 9.82323 6.46963 9.53034C6.17674 9.23744 6.17674 8.76257 6.46963 8.46968L11.9393 3.00001H9.74996C9.33575 3.00001 8.99996 2.66422 8.99996 2.25001C8.99996 1.83579 9.33575 1.50001 9.74996 1.50001H12.95L12.9702 1.5C13.0923 1.49997 13.2248 1.49994 13.3394 1.50931C13.4692 1.51991 13.6406 1.54615 13.8175 1.63625C14.0527 1.75609 14.2439 1.94732 14.3637 2.18252C14.4538 2.35935 14.4801 2.53078 14.4907 2.66053C14.5 2.77518 14.5 2.90763 14.5 3.02979L14.5 3.05001V6.25001C14.5 6.66422 14.1642 7.00001 13.75 7.00001C13.3358 7.00001 13 6.66422 13 6.25001ZM6.00003 1.50042L5.91321 1.50041C5.30001 1.50026 4.88204 1.50015 4.51844 1.57248C3.03085 1.86838 1.86798 3.03124 1.57208 4.51883C1.49976 4.88244 1.49986 5.3004 1.50001 5.91361L1.50003 6.00042V8.95042V8.98253C1.50002 9.79537 1.50001 10.451 1.54339 10.9819C1.58805 11.5285 1.68241 12.0087 1.90875 12.4529C2.26828 13.1585 2.84196 13.7322 3.54756 14.0917C3.99178 14.318 4.47192 14.4124 5.01856 14.4571C5.54947 14.5004 6.20507 14.5004 7.0179 14.5004H7.05003H9.99978L10.0866 14.5004H10.0867C10.7 14.5006 11.1181 14.5007 11.4819 14.4283C12.9693 14.1324 14.132 12.9696 14.4279 11.4822C14.5003 11.1185 14.5002 10.7004 14.5 10.087V10.087L14.5 10.0002V9.75124C14.5 9.33703 14.1642 9.00124 13.75 9.00124C13.3358 9.00124 13 9.33703 13 9.75124V10.0002C13 10.7333 12.9964 10.9904 12.9568 11.1895C12.7792 12.082 12.0816 12.7796 11.1891 12.9572C10.99 12.9968 10.733 13.0004 9.99978 13.0004H7.05003C6.19757 13.0004 5.60334 12.9998 5.14071 12.962C4.68683 12.925 4.42607 12.8558 4.22855 12.7552C3.80518 12.5395 3.46098 12.1953 3.24526 11.7719C3.14462 11.5744 3.07549 11.3136 3.03841 10.8597C3.00061 10.3971 3.00003 9.80288 3.00003 8.95042V6.00042C3.00003 5.26749 3.00366 5.01055 3.04326 4.81147C3.2208 3.91891 3.91852 3.22119 4.81107 3.04365C5.01016 3.00405 5.2671 3.00042 6.00003 3.00042H6.25003C6.66424 3.00042 7.00003 2.66464 7.00003 2.25042C7.00003 1.83621 6.66424 1.50042 6.25003 1.50042H6.00003Z" fill="#7D7D7D"/>
</svg>
