<svg width="24" height="24" viewBox="0 0 24 24" fill="none" xmlns="http://www.w3.org/2000/svg">
<path d="M23.4985 6.29606C23.2225 5.29388 22.4092 4.50459 21.3766 4.23673C19.505 3.75 12 3.75 12 3.75C12 3.75 4.49503 3.75 2.62336 4.23673C1.59077 4.50463 0.777523 5.29388 0.501503 6.29606C0 8.11259 0 11.9026 0 11.9026C0 11.9026 0 15.6926 0.501503 17.5091C0.777523 18.5113 1.59077 19.2677 2.62336 19.5356C4.49503 20.0223 12 20.0223 12 20.0223C12 20.0223 19.505 20.0223 21.3766 19.5356C22.4092 19.2677 23.2225 18.5113 23.4985 17.5091C24 15.6926 24 11.9026 24 11.9026C24 11.9026 24 8.11259 23.4985 6.29606V6.29606ZM9.54544 15.3436V8.46155L15.8181 11.9027L9.54544 15.3436V15.3436Z" fill="#474747"/>
</svg>
