<svg width="24" height="24" viewBox="0 0 24 24" fill="none" xmlns="http://www.w3.org/2000/svg">
<path d="M20.993 5.3886C20.7436 8.19962 19.6642 15.0211 19.1149 18.1695C18.8826 19.5017 18.425 19.9484 17.9822 19.9921C17.0197 20.0871 16.2887 19.3099 15.3564 18.6544C13.8975 17.6288 13.0734 16.9903 11.6573 15.9895C10.0208 14.8329 11.0817 14.1974 12.0143 13.158C12.2584 12.8861 16.4995 8.74885 16.5815 8.37352C16.5918 8.32657 16.6016 8.1513 16.5044 8.05926C16.4072 7.96722 16.2645 7.99841 16.1612 8.02342C16.0149 8.05907 13.6844 9.71116 9.16964 12.9797C8.50819 13.4668 7.90903 13.7042 7.37216 13.6918C6.78032 13.6781 5.64191 13.3329 4.79556 13.0378C3.75754 12.676 2.93251 12.4846 3.00436 11.87C3.04179 11.5499 3.45283 11.2225 4.23748 10.888C9.06954 8.63009 12.2917 7.14149 13.9038 6.42218C18.507 4.3687 19.4634 4.01201 20.0869 4.00011C20.224 3.99767 20.5306 4.03409 20.7292 4.20692C20.8613 4.33003 20.9455 4.50183 20.9651 4.68833C20.9988 4.91991 21.0081 5.15479 20.993 5.3886Z" fill="#7D7D7D"/>
</svg>
