<svg xmlns="http://www.w3.org/2000/svg" viewBox="0 0 42.15 35.43">
                    <defs>
                      <style>
                        <!-- .cls-1 {
                          fill: #fff;
                        } -->

                        .cls-2 {
                          fill: #818181;
                        }
                      </style>
                    </defs>
                    <g id="Слой_2" data-name="Слой 2">
                      <g id="Layer_2" data-name="Layer 2">
                        <rect class="cls-1" x="16.89" y="6.39" width="9.37" height="23.61"></rect>
                        <path class="cls-2"
                          d="M40.88,23.73,27.35,3.36a7.53,7.53,0,0,0-12.54,0L1.27,23.73a7.53,7.53,0,0,0,6.27,11.7H34.61A7.53,7.53,0,0,0,40.88,23.73ZM21.08,28.9a2,2,0,1,1,2.05-2A2.05,2.05,0,0,1,21.08,28.9Zm2.05-8.21a2.05,2.05,0,0,1-4.1,0V10.43a2,2,0,0,1,4.1,0Z">
                        </path>
                      </g>
                    </g>
                  </svg>