<?xml version="1.0" encoding="UTF-8"?><svg id="Layer_1" xmlns="http://www.w3.org/2000/svg" viewBox="0 0 683.93 554.83"><defs><style>.cls-1{fill:#848484;}</style></defs><g><path class="cls-1" d="M124.73,88.93h-37.4l-57.2,60.2v-60.2H.03V235.73H30.13v-51.4l15.4-15.4,47.7,66.8h36.7l-63.8-87.3,58.6-59.5Z"/><path class="cls-1" d="M182.03,88.93h-30.1V235.73h30.1V88.93Z"/><path class="cls-1" d="M270.83,88.93h-57.2V235.73h49.2c10.3,0,21.3-.7,31.6-2.9,7.3-2.2,13.9-5.1,19.8-10.3,8.1-6.6,13.9-14.7,17.6-25,4.4-11,6.6-23.5,5.9-35.2,0-25-5.9-43.3-16.9-55-11.1-12.5-27.3-18.4-50-18.4Zm26.4,109.3c-6.6,7.3-16.1,11-30.1,11h-24.2V115.33h27.9c12.5,0,21.3,3.7,27.2,11.7,5.9,7.3,8.8,19.8,8.8,36-.1,16.2-3,27.9-9.6,35.2Z"/></g><path class="cls-1" d="M50.93,55.13c-.7-1.5-.7-3.7-.7-5.1V16.23c0-2.2-.7-5.1-1.5-6.6-1.5-2.2-2.9-3.7-5.1-5.1C37.73,1.63,31.13,.13,25.33,.13,19.43-.57,12.83,1.63,7.73,5.23c-2.2,1.5-3.7,3.7-5.1,5.9-1.5,2.2-1.5,5.1-1.5,8.1v.7H15.83v-.7c0-.7,0-2.2,.7-2.9l2.2-2.2c2.2-1.5,4.4-2.2,7.3-2.2,2.2,0,5.1,0,7.3,1.5,.7,.7,1.5,1.5,1.5,2.2s.7,2.2,.7,2.9c0,2.9-2.9,5.1-9.5,5.9-2.9,0-4.4,.7-6.6,.7-5.1,.7-11,2.2-14.7,5.9-1.5,1.5-2.9,3.7-3.7,5.9-.7,2.2-1.5,4.4-.7,6.6,0,5.1,1.5,9.5,4.4,13.9,1.5,1.5,3.7,2.9,5.9,3.7s4.4,1.5,7.3,.7c3.7,0,7.3-.7,11-2.2,2.9-1.5,5.9-3.7,7.3-6.6,0,1.5,0,2.9,.7,3.7,0,1.5,.7,2.2,1.5,2.9h16.1v-2.9c-2.1-.1-2.8-.9-3.6-1.6Zm-15.4-18.4c0,1.5,0,3.7-.7,5.1-.7,1.5-1.5,2.9-2.9,4.4-1.5,1.5-2.9,2.2-4.4,2.9s-3.7,.7-5.1,.7c-2.2,0-3.7-.7-5.9-2.2-.7-.7-1.5-1.5-1.5-2.2s-.7-1.5-.7-2.9,.7-3.7,1.5-5.1c1.5-1.5,3.7-2.2,5.9-2.9l5.1-1.5c2.9-.7,5.9-1.5,8.8-2.9l-.1,6.6Z"/><g><path class="cls-1" d="M34.63,334.53c-.7,.7-2.2,1.5-2.9,2.2-1.5,.7-2.2,.7-3.7,.7s-3.7,0-5.1-1.5c-1.5-.7-2.9-2.2-3.7-3.7-2.2-3.7-2.9-8.1-2.9-12.5s.7-9.5,2.9-13.9c.7-1.5,2.2-2.9,3.7-3.7,1.5-.7,2.9-1.5,5.1-.7,2.2,0,5.1,.7,6.6,2.2,2.2,2.2,2.9,4.4,2.9,7.3h15.4c0-2.9-.7-5.9-2.2-8.8-1.5-2.9-2.9-5.1-5.1-7.3-5.1-4.4-11.7-6.6-18.3-5.9-3.7,0-7.3,.7-11,2.2s-6.6,3.7-8.8,6.6c-5.1,6.6-8.1,14.7-7.3,22.7-.7,8.1,2.2,16.1,7.3,22.7,2.2,2.9,5.9,5.1,8.8,6.6s7.3,2.2,11,2.2c6.6,0,13.2-2.2,18.3-6.6,5.1-4.4,8.1-11,8.1-17.6h-15.4c-.8,1.6-1.5,4.6-3.7,6.8Z"/><path class="cls-1" d="M113.13,343.33c-.7-1.5-.7-3.7-.7-5.1v-33.8c0-2.2-.7-5.1-1.5-6.6-1.5-2.2-2.9-3.7-5.1-5.1-5.9-2.9-12.5-4.4-18.3-4.4s-12.5,1.5-17.6,5.1c-2.2,1.5-3.7,3.7-5.1,5.9s-1.5,5.1-1.5,8.1v.7h14.7v-.7c0-.7,0-2.2,.7-2.9s.7-1.5,2.2-2.2c2.2-1.5,4.4-2.2,7.3-2.2,2.2,0,5.1,0,7.3,1.5,.7,.7,1.5,1.5,1.5,2.2,.7,.7,.7,2.2,.7,2.9,0,2.9-2.9,5.1-9.5,5.9-2.9,0-4.4,.7-6.6,.7-5.1,.7-11,2.2-15.4,5.9-1.5,1.5-2.9,3.7-3.7,5.9-.7,2.2-1.5,4.4-.7,6.6,0,5.1,1.5,9.5,4.4,13.9,1.5,1.5,3.7,2.9,5.9,3.7,2.2,.7,4.4,1.5,7.3,.7,3.7,0,7.3-.7,11-2.2,2.9-1.5,5.9-3.7,8.1-6.6,0,1.5,0,2.9,.7,3.7,0,1.5,.7,2.2,1.5,2.9h16.1v-2.9c-2.9-.1-3.7-.9-3.7-1.6Zm-16.1-18.4c0,1.5,0,3.7-.7,5.1-.7,1.5-1.5,2.9-2.9,4.4s-2.9,2.2-4.4,2.9-3.7,.7-5.1,.7c-2.2,0-3.7-.7-5.9-2.2-.7-.7-1.5-1.5-1.5-2.2s-.7-1.5-.7-2.9c0-1.5,.7-3.7,1.5-5.1,1.5-1.5,3.7-2.2,5.9-2.9l5.1-1.5c2.9-.7,5.9-1.5,8.8-2.9l-.1,6.6h0Z"/><path class="cls-1" d="M142.53,269.93h-15.4v78.5h15.4v-78.5Z"/><path class="cls-1" d="M174.03,269.93h-15.4v78.5h15.4v-78.5Z"/><path class="cls-1" d="M212.93,288.23c-3.7,0-7.3,.7-11,2.2s-6.6,3.7-8.8,6.6c-5.1,6.6-7.3,13.9-7.3,22-.7,8.1,2.2,16.1,7.3,22.7,2.2,2.9,5.9,5.1,8.8,6.6,3.7,1.5,7.3,2.2,11,2.2,5.9,0,12.5-1.5,17.6-5.1,5.1-3.7,8.1-8.8,9.5-14.7h-15.4c-.7,2.2-2.2,3.7-4.4,5.1-2.2,1.5-4.4,1.5-6.6,1.5-1.5,0-2.9,0-4.4-.7-1.5-.7-2.9-1.5-3.7-2.9-2.2-2.9-3.7-6.6-2.9-10.3h38.9v-3.7c0-10.3-2.2-17.6-7.3-22.7-2.9-2.9-5.9-5.1-9.5-6.6-4.4-1.4-8.1-2.2-11.8-2.2Zm-11,25c0-2.9,1.5-6.6,3.7-8.8,.7-.7,2.2-2.2,3.7-2.2,1.5-.7,2.9-.7,4.4-.7s2.9,0,4.4,.7,2.9,1.5,3.7,2.2c2.2,2.2,2.9,5.9,2.9,8.8h-22.8Z"/><path class="cls-1" d="M290.73,297.83c-1.5-2.9-4.4-5.1-7.3-6.6s-6.6-2.2-10.3-2.2-6.6,.7-9.5,2.2-5.9,3.7-7.3,6.6c-4.4,6.6-7.3,14.7-6.6,22.7-.7,8.1,2.2,16.1,6.6,22,2.2,2.9,4.4,5.1,7.3,6.6s6.6,2.2,9.5,2.2c3.7,0,6.6-.7,9.5-2.2,2.9-2.2,5.9-4.4,7.3-7.3v8.1h14.7v-80h-14.7v27.9h.8Zm-3.7,34.5c-.7,1.5-2.2,2.9-4.4,3.7-1.5,.7-3.7,1.5-5.1,.7-2.2,0-3.7,0-5.1-.7s-2.9-2.2-4.4-3.7c-2.2-3.7-3.7-8.8-2.9-13.2,0-4.4,.7-8.8,3.7-12.5,.7-1.5,2.2-2.9,3.7-3.7s3.7-1.5,5.1-1.5,3.7,0,5.1,.7c1.5,.7,2.9,2.2,4.4,3.7,2.2,3.7,3.7,8.1,3.7,12.5-.1,5.2-1.6,10.3-3.8,14h0Z"/></g><g><path class="cls-1" d="M97.63,472.73c5.1-2.2,10.3-6.6,13.2-11.7,2.9-5.9,4.4-12.5,4.4-18.3,0-11.7-3.7-21.3-11.7-27.9-8.1-6.6-19.1-9.5-34.5-9.5H.03v146.8H66.83c16.9,0,30.1-3.7,39.6-11.7,9.5-8.1,13.9-19.1,13.9-33,0-7.3-1.5-14.7-5.9-21.3-3.6-6.1-10.2-11.2-16.8-13.4h0Zm-69-41.8H63.13c8.1,0,13.2,1.5,16.9,3.7,1.5,1.5,2.9,2.9,3.7,5.1,.7,2.2,1.5,4.4,.7,6.6,0,2.2,0,4.4-.7,6.6-.7,2.2-2.2,3.7-4.4,5.1-3.7,2.9-8.8,3.7-16.1,3.7H28.73v-30.8h-.1Zm54.3,90.2c-3.7,2.9-10.3,4.4-18.3,4.4H28.63v-38.2H63.83c8.8,0,14.7,1.5,18.3,4.4,3.7,2.9,5.9,8.1,5.9,14.7,0,2.9,0,5.1-1.5,8.1,.1,2.2-1.4,4.4-3.6,6.6h0Z"/><path class="cls-1" d="M173.23,487.43h70.4v-25h-70.4v-31.5h76.3v-25.7h-106.4v146.8h110.1v-27.2h-80v-37.4Z"/><path class="cls-1" d="M329.53,405.23l-52.1,146.8h31.6l9.5-30.1h56.5l10.3,30.1h31.6l-52.8-146.8h-34.6Zm-2.9,91.7l20.5-62.4,20.5,62.4h-41Z"/><path class="cls-1" d="M535.03,474.93c-3.7-2.2-7.3-3.7-11.7-5.1-4.4-1.5-11.7-3.7-22.7-6.6l-10.3-2.2c-16.9-3.7-25-9.5-25-17.6,0-2.2,.7-5.1,1.5-7.3s2.9-4.4,5.1-5.9c5.1-3.7,11.7-5.1,18.3-4.4,7.3-.7,14.7,1.5,21.3,5.9,2.2,2.2,4.4,4.4,5.9,7.3,1.5,2.9,2.2,5.9,2.2,8.8h29.4c-.7-14.7-5.9-26.4-15.4-34.5s-22.7-12.5-40.4-12.5-32.3,3.7-41.8,11.7c-9.5,7.3-14.7,18.3-14.7,33,0,6.6,1.5,13.9,4.4,19.8,2.9,5.1,6.6,10.3,11.7,13.2,5.9,3.7,15.4,7.3,29.4,10.3l2.9,.7h.7c25.7,5.9,38.2,13.2,38.2,22,0,2.9-.7,5.1-1.5,8.1-1.5,2.2-2.9,4.4-5.1,5.9-4.4,2.9-11,4.4-19.8,4.4-10.3,0-18.3-2.2-23.5-5.9-2.9-2.2-5.1-5.1-6.6-8.1-1.5-2.9-2.9-6.6-2.9-10.3h-29.4c.7,16.1,6.6,27.9,16.9,36.7s25,12.5,43.3,12.5,33-4.4,43.3-12.5c10.3-8.8,15.4-20.5,15.4-35.2,0-6.6-1.5-13.9-4.4-19.8-4.5-4.3-8.9-9.5-14.7-12.4h0Z"/><path class="cls-1" d="M567.23,405.23v26.4h43.3v120.3h30.1v-120.3h43.3v-26.4h-116.7Z"/></g></svg>