<svg id="Слой_1" data-name="Слой 1" xmlns="http://www.w3.org/2000/svg" viewBox="0 0 27.31 42.4"><defs><style>.cls-1{fill:#848484;}</style></defs><g id="Corporation_1" data-name="Corporation 1"><g id="Navigation"><g id="AlfaBank_Logo_Red" data-name="AlfaBank Logo Red"><g id="AlfaBank_Logo" data-name="AlfaBank Logo"><path class="cls-1" d="M0,37.1V42a.43.43,0,0,0,.4.4H26.91a.43.43,0,0,0,.4-.4V37.2a.43.43,0,0,0-.4-.4H.41a.52.52,0,0,0-.29.09A.3.3,0,0,0,0,37.1Z"/><path class="cls-1" d="M26.31,26.1l-8.1-22c-.8-2-1.7-4.1-4.6-4.1S9.81,2.1,9.1,4.2L1,26.2a.45.45,0,0,0,.2.6l4.4,1.7a.56.56,0,0,0,.5-.3L8,23H19.21l1.9,5.1a.29.29,0,0,0,0,.16.33.33,0,0,0,.46.14l4.5-1.7A.48.48,0,0,0,26.31,26.1ZM9.81,18l3.8-11.3L17.41,18Z"/></g></g></g></g></svg>