<svg id="Слой_1" data-name="Слой 1" xmlns="http://www.w3.org/2000/svg" viewBox="0 0 531.57 59.04"><defs><style>.cls-1{fill:#848484;}</style></defs><title>chulakov_logo_edited</title><g id="Слой_1-2" data-name="Слой 1"><path class="cls-1" d="M58.52,37.2H41.59a10,10,0,0,1-3.47,7.06,10.29,10.29,0,0,1-7.54,2.44c-8.11,0-12.66-5.93-12.66-16.42v-.63c0-10.57,4.81-16.42,12.43-16.42a9.21,9.21,0,0,1,7,2.43,9,9,0,0,1,2.92,6.75H57.73C56.33,7,45.66,0,30.27,0A29,29,0,0,0,8.52,8.32,28.38,28.38,0,0,0,0,29.73v.64C0,48.18,10.22,60,30.92,60,46.23,60,57.32,52.22,58.52,37.2ZM91,59V36.17h19.45V59h16.94V1H110.45V23.15H91V1H74V59Zm107.72-23.8V1H181.59V34.53c0,8.69-2.26,12.42-9.27,12.42-7.2,0-9.27-4-9.27-12.18V1h-17V35.5c0,16.25,9.5,24.54,26.22,24.54,16.31,0,26.4-7.89,26.4-24.78Zm58,23.8V46.14H234.41V1h-17V59Zm40.67-44.6,6.46,22.33h-13ZM268.62,59h15.81l3.15-10.81h19.61L310.34,59h18L309.52,1H287.58Zm90.19,0V34.74l17,24.3h19.71l-22.86-31.1,21.68-27H376.62l-17.8,23V.94h-17V59ZM464.89,30V29.3c0-18-13.3-29.18-31.35-29.18a29.65,29.65,0,0,0-22.17,8,29,29,0,0,0-9.11,21.55v.65c0,17.45,11.93,29.64,31,29.64s31.63-12.11,31.63-30ZM420,30.27v-.65c0-10.57,5.22-16.5,13.56-16.5s13.67,6.1,13.67,16.42v.65c0,10.4-5.18,16.73-13.55,16.73C425.42,47,420,40.87,420,30.3ZM493,59H512.2L531.57,1H515.68L503.58,41.8,491.58,1H473.34Z"/></g></svg>