<svg id="Слой_1" data-name="Слой 1" xmlns="http://www.w3.org/2000/svg" viewBox="0 0 58.04 60.31"><defs><style>.cls-1{fill:#fff;}.cls-2{fill:#ff6900;}.cls-3{fill:#848484;}</style></defs><title>dodo_logo_edited</title><g id="svg_14" data-name="svg 14"><path class="cls-1" d="M44.57,38h0a21.85,21.85,0,0,1-2.1,1.2A23.38,23.38,0,0,0,44.57,38Z"/><path class="cls-2" d="M43.64,39.53A6.28,6.28,0,0,0,44.56,38h0A5.58,5.58,0,0,1,43.64,39.53Z"/><path class="cls-1" d="M41.42,42.76l.33-.22h0Z"/><path class="cls-2" d="M41.55,43.15a4.47,4.47,0,0,1-.49.85A5.51,5.51,0,0,0,41.55,43.15Z"/><path class="cls-1" d="M40.17,43.41c.32-.14.62-.29.89-.43A6.68,6.68,0,0,1,40.17,43.41Z"/><path class="cls-2" d="M39.9,45.26a6.05,6.05,0,0,0,1.16-1.21A5.8,5.8,0,0,1,39.9,45.26Z"/><path class="cls-2" d="M39,45.85c.21-.12.41-.25.6-.38C39.42,45.6,39.23,45.73,39,45.85Z"/><path class="cls-1" d="M39.14,43.82a23.19,23.19,0,0,1-6.58,1.33h0A23.19,23.19,0,0,0,39.14,43.82Z"/><path class="cls-2" d="M43.64,39.54c-2.14,2.66-6.61,4.33-11,4.86l-.06.38v-.39C37,43.86,41.49,42.15,43.64,39.54Z"/><path class="cls-2" d="M37.73,47.61a3.4,3.4,0,0,1-.28.45q.15-.23.27-.45Z"/><path class="cls-2" d="M36.7,48.92l-.28.23A2,2,0,0,0,36.7,48.92Z"/><path class="cls-1" d="M35.42,41.56c.63-.12,1.24-.26,1.82-.41C36.66,41.31,36.05,41.44,35.42,41.56Z"/><path class="cls-2" d="M35.81,47.15a15,15,0,0,1-1.59.33Z"/><path class="cls-1" d="M32.42,51.26a12.12,12.12,0,0,0,3.85-1.93A11.43,11.43,0,0,1,32.42,51.26Z"/><path class="cls-3" d="M33.83,21.15A10.76,10.76,0,0,1,36,16.92c1-1.1,2.2-1.45,4.74-1.45,3.5,0,6.43,3.55,6.43,8.5,0,.73-1,.73-1.31.06-1.19-2.11-2.8-2.41-5.35-2.6-1.87-.11-4.14.05-6.2.14C33.88,21.56,33.77,21.29,33.83,21.15Z"/><path class="cls-2" d="M32.62,44.78a2.2,2.2,0,0,1-.06.37h0Z"/><path class="cls-2" d="M34.22,47.44a22.23,22.23,0,0,1-2.43.25A22.23,22.23,0,0,0,34.22,47.44Z"/><path class="cls-2" d="M31.78,47.69h0c-.13.28-.25.53-.38.78h0C31.53,48.23,31.66,48,31.78,47.69Z"/><path class="cls-1" d="M37.73,47.61h0a21.11,21.11,0,0,1-6.32.87h0A21.11,21.11,0,0,0,37.73,47.61Z"/><path class="cls-3" d="M27.5,52a17.8,17.8,0,0,1-7.4-1.58,20.57,20.57,0,0,0,2.25-6.6,38.51,38.51,0,0,0,8.35,1,13.32,13.32,0,0,1-4.08,7.1,18,18,0,0,0,4.2-.31A16.91,16.91,0,0,1,27.5,52Z"/><path class="cls-1" d="M30.7,44.87a38.51,38.51,0,0,1-8.35-1v0c.08-.46.14-.93.18-1.38,0-.24,0-.48.06-.71a4,4,0,0,1,.05-.69,31.56,31.56,0,0,0,9.78,1,25.38,25.38,0,0,0,3-.39c.63-.12,1.24-.25,1.82-.41a26.49,26.49,0,0,0,5.23-2,21.6,21.6,0,0,0,2.09-1.19,6.28,6.28,0,0,1-.92,1.56h0c-2.15,2.65-6.62,4.32-11,4.85v.39a.68.68,0,0,1-.07.37h0a23.21,23.21,0,0,0,6.58-1.34,9.82,9.82,0,0,0,1-.41L41,43l.38-.22.33-.21c-.06.22-.14.43-.22.64a5.51,5.51,0,0,1-.49.85h0a6.05,6.05,0,0,1-1.16,1.21l-.28.21c-.19.13-.39.26-.6.38a12,12,0,0,1-3.19,1.25q-.78.2-1.59.33a22.23,22.23,0,0,1-2.43.25h0c-.12.27-.25.54-.38.78h0a21.11,21.11,0,0,0,6.32-.87q-.12.22-.27.45a5.14,5.14,0,0,1-.75.86,1.87,1.87,0,0,1-.29.2l-.22.19a12.06,12.06,0,0,1-3.78,1.92,14.89,14.89,0,0,1-1.56.4,18,18,0,0,1-4.2.31A13.29,13.29,0,0,0,30.7,44.87Z"/><path d="M23.19,14.25c.26-.17.23-.63,0-1s-.52-.65-.82-.63l-.05-.07a.86.86,0,0,1,.51-.48c.74-.25,1.8.48,2.37,1.63s.43,2.28-.31,2.52-1.79-.47-2.36-1.62a2.62,2.62,0,0,1-.19-.46h.13A.59.59,0,0,0,23.19,14.25Z"/><path class="cls-1" d="M22.64,41a31.66,31.66,0,0,0,9.79,1,28,28,0,0,0,3-.38,25.38,25.38,0,0,1-3,.39,31.56,31.56,0,0,1-9.78-1,3.21,3.21,0,0,1,0,.69C22.62,41.45,22.63,41.21,22.64,41Z"/><path class="cls-1" d="M22.54,42.39l.06-.71C22.59,41.91,22.57,42.15,22.54,42.39Z"/><path class="cls-1" d="M22.36,43.77q.11-.69.18-1.38C22.5,42.84,22.42,43.31,22.36,43.77Z"/><path class="cls-1" d="M25.21,13.68c-.57-1.15-1.63-1.88-2.37-1.63a.86.86,0,0,0-.51.48l.05.07a1.11,1.11,0,0,1,.82.63c.16.32.25.85,0,1a.57.57,0,0,1-.71-.17h-.13a2.62,2.62,0,0,0,.19.46c.57,1.15,1.63,1.88,2.36,1.62S25.78,14.82,25.21,13.68ZM34,27.2C29.84,23.36,15.28,25.58,16.42,16a5.8,5.8,0,0,1,4.31-5.13A3.89,3.89,0,0,0,20.25,12l.42.11c1.23-2.09,4.32-2,4.58.11,0,0,2.44,2.49,3,3,.14.12.21.2.12.32s-.38.07-.68,0l-.1.25c.51.41,2.15.79,5,.6a20.5,20.5,0,0,0,2.77-.21,10.46,10.46,0,0,0-2.65,4.94c-.08.27-.21.53-.78.58-5.55.43-10.22-.22-11.83-3.2-.18-.35-.14-.62.16-.8a1.85,1.85,0,0,1,1.27-.13l.12-.25a2.46,2.46,0,0,0-3.09.26,1.79,1.79,0,0,0,.11,2.21l.26-.1a1.6,1.6,0,0,1-.05-.49A.16.16,0,0,1,19,19a.17.17,0,0,1,.16.06c1.94,2.85,5.56,3.81,8.88,4.54,4.72,1,6.55,3.28,6.39,3.8C34.28,27.55,34.08,27.27,34,27.2Z"/><path d="M34,27.2c.08.07.28.35.42.17.16-.52-1.67-2.76-6.39-3.8-3.32-.73-6.94-1.69-8.88-4.54A.17.17,0,0,0,19,19a.16.16,0,0,0-.11.14,1.6,1.6,0,0,0,.05.49l-.26.1a1.79,1.79,0,0,1-.11-2.21,2.46,2.46,0,0,1,3.09-.26l-.12.25a1.85,1.85,0,0,0-1.27.13c-.3.18-.34.45-.16.8,1.61,3,6.28,3.63,11.83,3.2.57-.05.7-.31.78-.58a10.46,10.46,0,0,1,2.65-4.94c-1,.14-2,.17-2.77.21-2.87.19-4.51-.19-5-.6l.1-.25c.3.11.62.13.68,0s0-.2-.12-.32c-.54-.51-3-3-3-3C25,10,21.9,9.93,20.67,12l-.42-.11a3.89,3.89,0,0,1,.48-1.11A5.81,5.81,0,0,0,16.42,16C15.28,25.58,29.84,23.36,34,27.2Zm6.42-5.8c2.55.19,4.16.49,5.35,2.6.32.67,1.31.67,1.31-.06,0-5-2.93-8.5-6.43-8.5-2.54,0-3.7.35-4.74,1.45a10.67,10.67,0,0,0-2.08,4.26c-.06.17.05.44.43.42A56.61,56.61,0,0,1,40.42,21.4Zm1.07,3a37.16,37.16,0,0,0-5.38,0c.83,1.06,1.49,4,1.49,5.9,0,.92-.46,1.19-.89,1.19-1.07,0-2.59-2.3-5.16-3.46A20.41,20.41,0,0,0,24,26.36c-2.38,0-2.89,1.61-2.53,3.78a74.86,74.86,0,0,1,1.13,7.6,30.4,30.4,0,0,0,8.63,1.32,27.73,27.73,0,0,0,14.3-4.38c.56-.34.88-.33,1,.07a7.15,7.15,0,0,1-1.37,6.13,9.42,9.42,0,0,1-4.28,6.81c-2.44,4.51-7.11,7-12.6,7a23.32,23.32,0,0,1-9.55-2.15c-1.73,2.4-4.23,5-9.26,7.75H6.62a9.37,9.37,0,0,1-1.2-.14L5,60l-.42-.13-.41-.16-.4-.18c6.09-2.51,10-5.56,12.44-8.73a17.07,17.07,0,0,0,4-11.13c0-9.66-5.18-16.2-5.18-22.43,0-6.39,5.29-7.6,7.28-7.83a5.13,5.13,0,0,0-.55-1.3,1.06,1.06,0,0,0-1.14-.45.61.61,0,0,0-.41.75,2,2,0,0,0,.31.69l-.31.06c-.14-.16-.3-.33-.48-.5a2.3,2.3,0,0,0-1.3-.62L18.54,7c1.72-1.4,4.52-1.09,5.77,1.69,2.83.67,4.89,5.73,7.38,5.73,3.5,0,4.93-.81,8.62-.81,4.5,0,8.79,3.29,8.79,10.08,0,3.1-1,3.95-2.7,3.95a2.23,2.23,0,0,1-2.08-1c-.45-.78-.56-1.9-2.79-2.29ZM41,43c-.27.14-.57.29-.89.43l-1,.41a23.13,23.13,0,0,1-6.57,1.33,2.2,2.2,0,0,0,.06-.37l.06-.38c4.35-.53,8.82-2.2,11-4.86h0A6,6,0,0,0,44.62,38h0c-.59.38-1.29.79-2.1,1.21a26.49,26.49,0,0,1-5.23,2c-.58.15-1.19.29-1.82.41a28,28,0,0,1-3,.38,31.66,31.66,0,0,1-9.79-1v.7l-.06.71q-.07.69-.18,1.38c-.11.69,0,0,0,.05a20.57,20.57,0,0,1-2.25,6.6A17.8,17.8,0,0,0,27.59,52a16.2,16.2,0,0,0,3.32-.34,14.89,14.89,0,0,0,1.56-.4,11.43,11.43,0,0,0,3.85-1.93l.1-.17.25-.22a5.14,5.14,0,0,0,.75-.86,3.4,3.4,0,0,0,.28-.45h0a21.11,21.11,0,0,1-6.32.87c.13-.25.25-.5.38-.78a22.23,22.23,0,0,0,2.43-.25,13.2,13.2,0,0,0,1.62-.31A12.58,12.58,0,0,0,39,45.85c.21-.12.41-.25.6-.38l.28-.21a5.8,5.8,0,0,0,1.16-1.21h0a4.47,4.47,0,0,0,.49-.85c.08-.21.16-.42.22-.64h0l-.33.22Z"/><path class="cls-3" d="M14.54,12l.16-.13-.6-.28c-.68-.41-.91-1-.68-1.41a1.93,1.93,0,0,1,1.71-.68,7.21,7.21,0,0,1,2.5.52l.21-.08a2.21,2.21,0,0,1-.55-.59.71.71,0,0,1,.12-1,1.36,1.36,0,0,1,1-.22,2.33,2.33,0,0,1,1.31.62c.18.17.34.34.48.5l.31-.06a2,2,0,0,1-.31-.69.61.61,0,0,1,.41-.75,1.06,1.06,0,0,1,1.14.43,5.31,5.31,0,0,1,.55,1.27c-2,.23-7.28,1.44-7.28,7.83C15,23.48,20.2,30,20.2,39.68a17.07,17.07,0,0,1-4,11.13C13.75,54,9.85,57,3.76,59.54A6.79,6.79,0,0,1,0,53.15v-7c2.12-.42,4.21-.81,4.21-.81l.26-1.14H0V37.34H0A34.36,34.36,0,0,0,7.42,38.5c4,0,6.29-2.37,6.29-6.9,0-5.55-1.78-10.6-1.2-13.77l-.09-.18c-2,2.11-3.34,1.55-3.48.87-.29-1.36,2.08-3,3.43-3.6a.79.79,0,0,1,.1-.28c-1.26.2-2.75,0-2.8-.87C9.57,12.7,11.72,11.74,14.54,12Z"/><path d="M6.62,60.29h.67A3,3,0,0,1,6.62,60.29Z"/><path class="cls-2" d="M5,60l.4.14Z"/><path d="M10.19,20.69c-3.23.8-5-3-1.14-5.14-3-.43-2.17-4.33,2.23-4.45-1-2.37,1.33-3.34,3.13-2.78C14.51,6.56,17,6,18.53,7l-.11,1.08a1.36,1.36,0,0,0-1,.22.71.71,0,0,0-.12,1,2.21,2.21,0,0,0,.55.59l-.21.08a7.21,7.21,0,0,0-2.5-.52,1.94,1.94,0,0,0-1.72.7c-.24.45-.06,1.07.67,1.45l.6.28-.16.13c-2.82-.23-5,.73-4.91,1.8,0,.91,1.54,1.07,2.8.87a1,1,0,0,1-.1.28c-1.35.58-3.72,2.24-3.43,3.6.14.68,1.46,1.24,3.48-.87l.14.18c-.58,3.17,1.2,8.22,1.2,13.77,0,4.53-2.25,6.9-6.29,6.9A34.22,34.22,0,0,1,0,37.34V34.45a29.73,29.73,0,0,0,7,1.31c2.57,0,4.45-1,4.45-5.1C11.5,27.68,10.42,23.37,10.19,20.69Z"/><path class="cls-2" d="M4.19,59.72l.41.16Z"/><path d="M4.48,44.2l-.26,1.14s-2.09.39-4.21.81V44.22C1.63,44.15,3.53,44.15,4.48,44.2Z"/><path class="cls-2" d="M3.79,59.54l.4.18A2.87,2.87,0,0,1,3.79,59.54Z"/><path class="cls-3" d="M0,34.45v2.89H0V7.5A7.14,7.14,0,0,1,6.81,0H27C44.55,0,58,12.08,58,30S44.55,60.31,27,60.31H9.48c5-2.79,7.53-5.35,9.26-7.75a23.32,23.32,0,0,0,9.55,2.15c5.49,0,10.16-2.52,12.6-7a9.42,9.42,0,0,0,4.28-6.81,7.15,7.15,0,0,0,1.37-6.13c-.12-.4-.44-.41-1-.07a27.73,27.73,0,0,1-14.3,4.38,30.4,30.4,0,0,1-8.63-1.32,75.47,75.47,0,0,0-1.13-7.61c-.36-2.17.15-3.78,2.53-3.78A20.41,20.41,0,0,1,31.59,28c2.57,1.16,4.09,3.46,5.16,3.46.43,0,.89-.27.89-1.19,0-1.85-.66-4.84-1.49-5.9a37.16,37.16,0,0,1,5.38,0c2.23.39,2.34,1.51,2.78,2.24a2.23,2.23,0,0,0,2.08,1c1.66,0,2.7-.85,2.7-4,0-6.79-4.29-10.08-8.79-10.08-3.69,0-5.12.81-8.62.81-2.49,0-4.55-5.06-7.38-5.73C23.05,5.87,20.25,5.56,18.53,7c-1.57-1-4-.44-4.12,1.32-1.8-.56-4.13.41-3.13,2.78-4.4.12-5.22,4-2.23,4.45C5.2,17.69,7,21.45,10.19,20.65c.22,2.68,1.31,7,1.31,10,0,4.14-1.88,5.1-4.45,5.1A30,30,0,0,1,0,34.45Z"/></g></svg>