<svg id="Layer_1" data-name="Layer 1" xmlns="http://www.w3.org/2000/svg" viewBox="0 0 618.2 118.2"><defs><style>.cls-1{fill:#848484;}</style></defs><title>kaspersky</title><path class="cls-1" d="M618.2,25.2l-42.6,92.5H559.7l14.2-31L545.2,25.2h16.5l12.2,27.3c3,6.5,5.9,12.7,6.8,17h2.1c.9-4.3,3.7-10.7,6.7-17.2l12.2-27.1Z"/><polygon class="cls-1" points="516.7 58.1 542.8 93.6 524.3 93.6 502 62.6 502 53.7 523.7 25.2 541.9 25.2 516.7 58.1"/><rect class="cls-1" x="479.3" width="14.9" height="93.7"/><path class="cls-1" d="M467,45.1H452.7c-.4-5.2-5.4-8.9-13.2-8.9-7.5,0-12.8,3.1-12.8,8.5,0,4.6,4.1,6.7,11.9,7.4l9.9,1c12.8,1.2,20.8,7.4,20.8,19.3,0,13.7-11.3,22.9-28.8,22.9-18.6,0-29.5-10-31-22.9H425c1.6,5.7,6.2,9.9,15.5,9.9,10.1,0,13.9-3.8,13.9-9.1,0-5.9-4.1-7.1-10.2-7.7l-10.1-1C418.6,63,411.8,56,411.8,45.2c0-12.9,11.2-21.7,27.8-21.7S466.4,31.7,467,45.1Z"/><path class="cls-1" d="M405,23.5V38.6h-9.4c-11.2,0-16.8,7.1-16.8,19.3V93.7H363.9V25.2h14.9v8h2.1c3.9-5.8,8.3-9.7,18.6-9.7Z"/><path class="cls-1" d="M352.1,56.1v7.1H310.6V52.4h26.8c-.6-9.4-6.5-15.6-16.9-15.6-11.7,0-19.2,8.1-19.2,22.7,0,15.3,8.1,22.4,19,22.4,8,0,13.6-4,15.9-9.4h14.9c-3.5,13.1-14.9,22.9-30.7,22.9-17.3,0-33.9-11.8-33.9-35.9s16.6-35.9,33.9-35.9C339,23.6,352.1,36.4,352.1,56.1Z"/><path class="cls-1" d="M248.2,23.5c16.5,0,30.3,12,30.3,35.7,0,23.4-14.3,34.5-32.2,34.5H235.4V79.6h10.1c10.8,0,18-5.8,18-20.5,0-14.5-6.8-21.7-18.3-21.7-11.1,0-19,6.8-19,21.4v58.8h-15V25.2h14.9v8h2.1C233.2,26.5,240.5,23.5,248.2,23.5Z"/><path class="cls-1" d="M199,45.1H184.7c-.4-5.2-5.4-8.9-13.2-8.9-7.5,0-12.8,3.1-12.8,8.5,0,4.6,4.1,6.7,11.9,7.4l9.9,1c12.8,1.2,20.7,7.4,20.8,19.3,0,13.7-11.3,22.9-28.8,22.9-18.6,0-29.5-10-31-22.9H157c1.6,5.7,6.2,9.9,15.5,9.9,10.1,0,13.9-3.8,13.9-9.1,0-5.9-4.1-7.1-10.2-7.7l-10.1-1C150.6,63,143.8,56,143.8,45.2c0-12.9,11.2-21.7,27.8-21.7S198.4,31.7,199,45.1Z"/><path class="cls-1" d="M101.1,23.5c17.8,0,29.3,7.6,28.9,24.5V93.7H115.1V87.9H113a37,37,0,0,1-21.6,7.5C76.2,95.4,67,86.2,67,74c0-13.1,9.6-21.6,26.6-21.6H106V63.1H94.1c-7.6,0-11.6,3.8-11.6,9.9,0,6.3,5.1,9.9,12.5,9.9,7.1,0,14.2-3.2,20.3-10.2V49.3c0-6.9-3.5-12.6-14.3-12.6-8.4,0-12.8,3.6-13.9,8.4h-16C72.6,32,84.8,23.5,101.1,23.5Z"/><polygon class="cls-1" points="37.3 58.2 63.5 93.7 45 93.7 22.7 62.7 22.7 53.8 44.4 25.2 62.6 25.2 37.3 58.2"/><rect class="cls-1" width="14.9" height="93.7"/></svg>