<svg id="Слой_1" data-name="Слой 1" xmlns="http://www.w3.org/2000/svg" viewBox="0 0 186.03 29.53"><defs><style>.cls-1,.cls-2{fill:#848484;}.cls-2{fill-opacity:0.85;}</style></defs><title>mercdev</title><g id="resource"><g id="Group-11"><g id="logo210x46_red_black" data-name="logo210x46 red black"><path id="Combined-Shape" class="cls-1" d="M4.35,16.06A1.45,1.45,0,0,1,3,16.85H.71c-.69,0-.88-.35-.56-1L7.85,1.16C8.23.46,9.13.1,10.54.1s2.29.34,2.63,1l5.91,11.34L25,1.13C25.35.43,26.24.07,27.65.07s2.29.34,2.65,1l7.6,14.77c.35.67.14,1-.64,1H35.05a1.4,1.4,0,0,1-1.31-.79L28.39,5.24c-.49-1.28-1-1.28-1.48,0L21.76,15.56a3,3,0,0,1-2.17,1.28H18.24a2.51,2.51,0,0,1-1.89-1.24L11.25,5.24c-.49-1.18-1-1.18-1.45,0ZM45.8,10.12v2.13c0,.82.43,1.22,1.28,1.22H61.21q1.83,0,1.83,1.68c0,1.12-.66,1.68-2,1.68H43.79c-1.55,0-2.32-.65-2.32-2V2c0-1.31.74-2,2.21-2H61.21Q63,0,63,1.69c0,1.14-.6,1.69-1.8,1.66H47.08c-.86,0-1.28.44-1.28,1.18V6.84h7.06c1.49,0,2.23.59,2.23,1.67s-.77,1.68-2.3,1.65Zm31,0c-1.53,0-2.29-.52-2.29-1.65s.73-1.63,2.19-1.67h4.57c1.24,0,2-.25,2.32-.77a1.34,1.34,0,0,0,.16-.39,1.52,1.52,0,0,0,.07-.52,1.36,1.36,0,0,0-.27-.93,2.29,2.29,0,0,0-1.11-.5,8.75,8.75,0,0,0-1.25-.18c-.57,0-1.14-.07-1.71-.08H72.31c-1,0-1.5.4-1.5,1.22v10.5c0,1.13-.66,1.69-2.14,1.68s-2.2-.56-2.2-1.68v-13c0-1.4.81-2.1,2.43-2.12H79.4Q85,0,87.1,2.33a4.08,4.08,0,0,1,1,2.75A3.51,3.51,0,0,1,85,8.6c1.94.35,3,1.42,3.06,3.19v3.32q0,1.68-2.19,1.68c-1.45,0-2.15-.56-2.12-1.68V11.84a.82.82,0,0,0,0-.49,1.52,1.52,0,0,0-.16-.4c-.3-.53-1.08-.79-2.32-.79Zm36.27,5c0,1.12-.61,1.68-1.83,1.7h-8.95a12.66,12.66,0,0,1-7.88-2.3A7.67,7.67,0,0,1,93.06,3.76a7.84,7.84,0,0,1,1.35-1.35A12.79,12.79,0,0,1,102.21,0h9Q113,0,113,1.69c0,1.14-.61,1.69-1.81,1.66l-.72,0h-8.29a7.53,7.53,0,0,0-4.63,1.44A4.49,4.49,0,0,0,95.8,8.43c0,2.14,1.12,3.62,3.35,4.46a7.4,7.4,0,0,0,3.08.54h9c1.22,0,1.83.56,1.83,1.67Zm25-12.94V8.44a7.1,7.1,0,0,1-2.93,6.08,12.36,12.36,0,0,1-7.83,2.3,12.54,12.54,0,0,1-7.88-2.3,7.28,7.28,0,0,1-3-6.08V1.74c0-1.08.73-1.64,2.19-1.67s2.2.54,2.14,1.67v6.7c0,2.14,1.11,3.62,3.35,4.46a10,10,0,0,0,3.16.57c2.52,0,4.38-.76,5.58-2.26a4.16,4.16,0,0,0,.82-2.79V1.77c0-1.13.67-1.69,2.14-1.67S138,.69,138,1.77Zm13.74,7.91c-1.52,0-2.29-.52-2.29-1.65s.73-1.63,2.19-1.67h4.57c1.24,0,2-.25,2.33-.77a1.68,1.68,0,0,0,.16-.39,2.24,2.24,0,0,0,.06-.52,1.36,1.36,0,0,0-.27-.93,2.29,2.29,0,0,0-1.11-.5,8.75,8.75,0,0,0-1.25-.18c-.57,0-1.14-.07-1.71-.08h-7.17c-1,0-1.5.4-1.5,1.22v10.5c.06,1.13-.66,1.69-2.14,1.68s-2.19-.56-2.19-1.68v-13c0-1.4.81-2.1,2.42-2.12h10.5c3.73,0,6.29.79,7.7,2.3a4.08,4.08,0,0,1,1,2.75A3.5,3.5,0,0,1,160,8.57c1.94.35,3,1.42,3.06,3.19v3.32q0,1.68-2.19,1.68c-1.44,0-2.15-.56-2.11-1.68V11.84a1,1,0,0,0,0-.49,2,2,0,0,0-.16-.4c-.31-.53-1.09-.79-2.33-.79Zm25.94,5.06c0,1.1-.73,1.65-2.24,1.65s-2.2-.57-2.1-1.69V8.67l-.23-.22-.37-.38-.72-.71q-1.53-1.53-3-3.09c-.87-.9-1.75-1.81-2.61-2.72-.7-.81-.5-1.29.6-1.45h1.39a3.56,3.56,0,0,1,2.84,1.08L175,5a1.12,1.12,0,0,0,1.51,0l3.78-3.89a2.9,2.9,0,0,1,2.5-1h1.84c1.44,0,1.8.38,1.08,1l-8,7.56v6.51Z"/><path id="Combined-Shape-2" class="cls-2" d="M9.12,27.51a1.58,1.58,0,0,1-.64,1.33,2.92,2.92,0,0,1-1.82.5H.88v-8H6.59c1.66,0,2.49.6,2.49,1.81Zm-1.63-.39v-3.7c0-.65-.46-1-1.37-1H2.59v5.73H6.17c.91,0,1.37-.35,1.37-1.06ZM25.2,25.91H19.79v1.36c0,.61.48.91,1.45.91h4.28v1.17H20.79a3.83,3.83,0,0,1-1.91-.41,1.46,1.46,0,0,1-.75-1.3V23.11a1.53,1.53,0,0,1,.67-1.27,3.07,3.07,0,0,1,1.84-.48h4.88v1.17h-4.3c-1,0-1.43.3-1.43.89v1.37H25.2ZM43.77,21.3,40,28.73a1.32,1.32,0,0,1-1.77.59,1.35,1.35,0,0,1-.59-.59L33.85,21.3h1.74l3.21,6.54L42,21.32Zm15,4.61H53.38v1.36c0,.61.49.91,1.45.91h4.29v1.17H54.39a3.83,3.83,0,0,1-1.91-.41,1.46,1.46,0,0,1-.75-1.3V23.11a1.53,1.53,0,0,1,.66-1.27,3.07,3.07,0,0,1,1.84-.48h4.89v1.17h-4.3c-1,0-1.44.3-1.44.89v1.37h5.41Zm17.11,3.44h-4.4a4.64,4.64,0,0,1-2.23-.43,1.56,1.56,0,0,1-.77-1.5V21.29h1.65v5.85a.92.92,0,0,0,.41.86,3.11,3.11,0,0,0,1.32.18h4v1.17Zm16.19-1.83q0,1.83-2.73,1.83h-2.5a3.85,3.85,0,0,1-2-.4,1.57,1.57,0,0,1-.78-1.41v-4.4a1.58,1.58,0,0,1,.8-1.42,3.57,3.57,0,0,1,2-.42h2.52c1.81,0,2.71.62,2.71,1.84Zm-1.63-.29V23.48a.86.86,0,0,0-.35-.78A2.05,2.05,0,0,0,89,22.48H87.23a2.14,2.14,0,0,0-1.14.22.86.86,0,0,0-.35.78V27.2a.91.91,0,0,0,.38.77,2.12,2.12,0,0,0,1.11.21H89A2.27,2.27,0,0,0,90.09,28a.81.81,0,0,0,.37-.74Zm18.83-2.64a1.46,1.46,0,0,1-.68,1.25,3.09,3.09,0,0,1-1.8.46h-4.06v3h-1.65v-8h5.63a3.51,3.51,0,0,1,1.77.39,1.4,1.4,0,0,1,.76,1.19c.05.54.05,1.12.05,1.73Zm-1.68-.38v-.95c0-.54-.44-.82-1.32-.82h-3.53v2.69h3.49C107.18,25.13,107.59,24.84,107.59,24.21Zm22,5.18H128V23.05l-2.92,5.65a1.3,1.3,0,0,1-1.19.83,1.13,1.13,0,0,1-.75-.24,2.29,2.29,0,0,1-.38-.54l-3-5.7v6.34h-1.58v-7a.91.91,0,0,1,.37-.76,1.62,1.62,0,0,1,1-.3,1.42,1.42,0,0,1,1.39.74l2.88,5.71,2.93-5.71a1.4,1.4,0,0,1,1.37-.76,1.51,1.51,0,0,1,1,.31,1,1,0,0,1,.37.79Zm16.07-3.48h-5.4v1.36c0,.61.48.91,1.45.91H146v1.17h-4.73a3.83,3.83,0,0,1-1.91-.41,1.46,1.46,0,0,1-.75-1.3V23.11a1.53,1.53,0,0,1,.66-1.31,3.1,3.1,0,0,1,1.85-.48H146v1.17h-4.3c-1,0-1.43.3-1.43.89v1.37h5.4Zm17.93,2.47a.9.9,0,0,1-.34.76,1.68,1.68,0,0,1-1.91.08,2.62,2.62,0,0,1-.5-.65L157,22.89v6.48H155.4v-6.9q0-1.17,1.35-1.17a1.4,1.4,0,0,1,.93.25,3,3,0,0,1,.52.65L162,27.84v-6.5h1.56v7Zm15.52-5.93h-2.83v6.9h-1.66v-6.9h-2.81V21.28h7.3Z"/></g></g></g></svg>