<?xml version="1.0" encoding="UTF-8"?><svg id="Layer_1" xmlns="http://www.w3.org/2000/svg" viewBox="0 0 362.88 131.12"><defs><style>.cls-1{fill:#848484;}</style></defs><g><g><path class="cls-1" d="M58.5,1.96c-14.5,4.2-21.8,10.3-40.4,33.6C3.9,53.26,0,62.46,0,77.86c0,14,5.5,26.9,15.9,37.3s23.3,15.9,37.9,15.9c17.4,0,32.4-7.5,43.7-22l4.8-6.1,1.7,6.4c1.9,7.7,5.1,12.7,10.5,16.5,11,7.9,25.1,6.8,34.8-2.6l3.7-3.6,3.8,3.6c5.1,5.1,11.5,7.8,18.3,7.8,9.3,0,16.7-3.6,22.8-11.3l2.9-3.7,2.3,3.5c2.8,4.1,9,8.7,13.8,10.3,8.4,2.9,20.1,.4,26.2-5.4l2.7-2.6,4.8,3.5c6.2,4.4,10.3,5.7,17.3,5.7,7.6,0,14.4-3.3,20.4-10,2.6-2.8,4.7-4.7,4.7-4.1,0,2.7,9.7,10.8,14.9,12.6,7.4,2.4,16.5,1.7,22.5-1.9,4.9-2.8,26.9-28.7,30.3-35.5,1.6-3.2,1.8-7.2,2.1-36.5,.3-38.2,.1-39.8-7.7-47.6s-18.1-9.9-28.7-6.3c-3.5,1.2-6.5,3.3-10.7,7.7-5.4,5.7-5.9,6-6.9,4.1-.6-1.1-3-3.9-5.3-6.1-9.5-9.3-24.8-9.9-35.5-1.4l-3.7,3-1.9-2.1c-3.3-3.6-9.6-6.2-16.4-6.7-8.7-.6-15.1,2.1-21.8,9.2l-4.9,5.1-4.4-4.9c-6.2-7-13.1-10-21.8-9.4-7.6,.6-12,2.5-17.3,7.6l-3.8,3.6-3.7-3.6c-5.3-5-9.7-7-17-7.6-11-.8-17.8,3.1-28.4,16.4l-5,6.4-6.8-6.9C97.5,2.36,76.6-3.34,58.5,1.96Zm28.2,13.1c10.6,3.7,18.5,11,23.7,22,2.9,6,3.1,7.3,3.1,17s-.2,10.9-3.3,17.3c-4.2,8.6-11.3,15.6-19.8,19.8-12.5,6.2-29.3,4.9-40.9-3.1-12.9-8.9-20-25.2-17.5-40,1.5-9,5-16.1,10.9-22.3,11.5-12.2,27.9-16.2,43.8-10.7Zm70.1-.4c1.2,.8,6.8,6.9,12.5,13.5l10.2,12.1,.5-9c.6-9.7,1.8-12.4,7.3-16.6,5.8-4.3,16.1-1.5,19.9,5.4,1.7,3.3,1.8,5.7,1.6,35.2l-.3,31.8-3.7,3.6c-2.9,3-4.5,3.8-8.5,4.1-3.4,.4-6,0-8.1-1.1-1.7-.9-7.7-7.1-13.4-13.8l-10.3-12.3-.5,9.1c-.6,10-2,13.1-7.3,16.5-2.5,1.5-4.4,1.9-8.5,1.6-4.6-.3-5.9-.9-9-4.1l-3.7-3.6-.3-30.3c-.2-16.6,0-31.6,.3-33.4,.7-4,5.5-9,9.8-10.2,3.7-1.1,8.3-.5,11.5,1.5Zm95.1,.3c4,2.8,6.2,6.4,6.9,11.4l.7,4.7,9.2-8.4c10.1-9.3,13.9-11.1,20.1-9.4,7.8,2.1,12.3,9.9,10.2,17.7-.8,2.9-3.1,5.9-9.6,12l-8.5,8.1,9,11c4.9,6,9.5,12.6,10.1,14.6,3.3,10-4.7,19.4-15.6,18.1-5.4-.6-6.8-1.8-17.2-14.6l-7.7-9.4-.5,7.5c-.6,8.4-2.3,11.8-7.3,14.9-2.5,1.5-4.4,1.9-8.5,1.6-4.6-.3-5.9-.9-9-4.1l-3.7-3.6-.3-30.3c-.2-16.6-.1-31.6,.3-33.2,1.7-9.2,13.8-14.1,21.4-8.6Zm91.1-.4c7.6,3.8,8.2,7.3,7.8,41.5-.3,25.2-.5,28.9-2.1,31.8-5.3,9.6-20.1,9.6-25.4,0-1.6-2.9-1.8-6.6-2.1-31.5-.2-18.2,.1-29.6,.8-32.2,2.6-9.8,12-14.1,21-9.6Z"/><path class="cls-1" d="M59.2,40.36c-3,3.2-2.8,5.1,1.5,9.7l3.6,4.1-3.6,3.7c-4.1,4.2-4.4,5.7-2.1,9s7,2.9,11.1-1l3.3-3.2,3.3,3.2c3.5,3.4,8.2,4.3,10.5,2s1.4-7-2-10.5l-3.2-3.3,3.2-3.3c3.9-4.1,4.3-8.8,1-11.1-3.2-2.3-4.3-2-8.8,2l-4,3.6-4-3.6c-4.7-4.2-6.8-4.5-9.8-1.3Z"/></g></g></svg>