<svg id="Слой_1" data-name="Слой 1" xmlns="http://www.w3.org/2000/svg" viewBox="0 0 169.35 27.6"><defs><style>.cls-1{fill:#848484;}</style></defs><title>opening</title><path class="cls-1" d="M166.2,13.9l2.4,2.9a11,11,0,0,1-8.1,3.3,12.66,12.66,0,0,1-5.6-1.1c-3.2-1.6-4.8-4.8-4.8-8.7,0-5.9,4-10.3,9.9-10.3,6.6,0,9.8,4.9,9.3,11.3h-15a5,5,0,0,0,2.3,3.9,7.34,7.34,0,0,0,4.1,1A7.48,7.48,0,0,0,166.2,13.9ZM154.5,7.8h10.6a5,5,0,0,0-5.2-4.3A5.3,5.3,0,0,0,154.5,7.8ZM53.7,19.6h5.4L50.6,9.7,59,.4H53.7L47.3,7.8H45.4V.4H41.3V19.5h4.1V11.9h1.9ZM71.4,3.9c-3.5,0-5.8,2.7-5.8,6.1s2.3,6.1,5.8,6.1,5.7-2.6,5.7-6.1S75,3.9,71.4,3.9ZM72.1,0c5.4,0,9.4,4.2,9.4,10s-3.9,10.1-9.4,10.1a8.2,8.2,0,0,1-6.2-2.5v10H61.7V.4h4.1V2.7A7.59,7.59,0,0,1,72.1,0Zm54.4.4H109.4V4.2h6.5V19.5h4.2V4.3h6.5V.4ZM38.4.4H21.3V4.2h6.5V19.5H32V4.3h6.5V.4ZM16.2,10a5.88,5.88,0,0,0-6-6.2,5.94,5.94,0,0,0-6,6.2,5.88,5.88,0,0,0,6,6.2A5.94,5.94,0,0,0,16.2,10ZM0,10A9.91,9.91,0,0,1,10.3,0,10,10,0,0,1,20.6,10,10,10,0,0,1,10.3,20.1,10,10,0,0,1,0,10ZM146.8.4V19.5h-4.1V7.2l-10,12.3h-3.3V.4h4.1V12.8L143.5.5h3.3ZM106.6,19.6h-4.1V.4h4.1ZM95.9,13a2.76,2.76,0,0,0-2.8-2.9H88.9V16h4.2A2.79,2.79,0,0,0,95.9,13Zm4.2,0c0,3.8-2.8,6.5-6.8,6.5H84.8V.4h4.1V6.6h4.7C97.6,6.6,100.1,9.2,100.1,13Z"/></svg>