<?xml version="1.0" encoding="UTF-8"?><svg id="Layer_1" xmlns="http://www.w3.org/2000/svg" viewBox="0 0 173 48.1"><defs><style>.cls-1{fill:#848484;}</style></defs><path class="cls-1" d="M18.8,37.4h3.6c5.1,0,8.5-2.5,10.8-8.2l4.9-12.7c3.7-9.6-.8-15.5-4.5-16.5H17L0,47.5H10.3l5.8-16,2.7,5.9ZM127,1.2h-10l4.3,8.5h-6.1l-13.5,37.8h9L127,1.2Zm37.6,0h-8.8l-16.7,46.2h8.8l6.6-18.4,.7,18.4h8.3l-.7-19.3h-5.4c4.5-2.9,12-7.5,15.6-9.4l-4.6-9.3h-.4l-13.2,18.7L164.6,1.2ZM26.7,2.1l3.6,7.1-7.3,20.3h-6.1L26.7,2.1Zm51.9,36.8l-3.9-5.9h-.4c-1.3,2.7-4,7.1-6.2,8.2-.2-1.9,.5-4.8,1.5-7.5l5.9-16h8.2l3.1-8h-8.6l2.3-6.1h-4.5c-2.6,3.2-6.2,5.4-10.2,6.3l1.7,5.3-6.4,17.5c-1,2.5-1.5,5.1-1.6,7.8,0,5.1,2.6,7.6,7.6,7.6,5-.1,8.6-3.8,11.5-9.2h0Zm12.7-29.2l-13.8,37.8h9l10.8-29.8h3.7c-1.2,3.8-2.9,7.5-5.1,10.9h8.6c1.5-2.4,2.7-5,3.6-7.7,2.2-6.5,1.6-11.7-3-11.7-3.3,0-6,2.8-7.9,6.3l-1.9-5.9-4,.1Zm-43.2,12.8c1.4-2.8,3.1-5.1,5.2-5.9,.6,2,.1,6-1.1,8.9l-6.8,3.4c.8-2.2,1.7-4.3,2.7-6.4h0Zm70.2,16.5c0,5.4,2.4,9,8.5,9,5.2,0,9-3.2,11.9-8.5l-4.3-6.5h-.4c-1.6,3.3-4.3,6.9-6.7,8.2-.3-.8-.5-1.6-.4-2.4,.1-2.2,.5-4.3,1.2-6.3,1-3.4,2.3-6.8,3.9-10,1.4-2.7,3-5,5.1-5.7,.2,.7,.3,1.4,.2,2.1,0,2.7-1.1,6.6-2.3,9.7h8.1c1.5-3.2,2.3-6.7,2.4-10.2,0-4.8-2.3-9.2-7.8-9.2s-9.7,3.5-12.9,9.5c-2.5,4.4-6.5,14.9-6.5,20.3h0ZM61.6,18.3c0-4.8-2.3-9.2-7.7-9.2s-9.6,3.5-12.9,9.5c-2.5,4.6-6.5,15-6.5,20.5s2.4,9,8.4,9c5.2,0,9-3.2,11.9-8.5l-4.3-6.6h-.4c-1.6,3.3-4.3,6.9-6.7,8.2-.3-.8-.5-1.6-.4-2.4,.2-2.5,.6-4.9,1.4-7.3h13.6c2-4,3.6-9.2,3.6-13.2Z"/></svg>