<svg id="svg2" xmlns="http://www.w3.org/2000/svg" viewBox="0 0 289.99 109.81"><defs><style>.cls-1{fill:#848484;}</style></defs><title>sts</title><path id="path3042" class="cls-1" d="M54.74.35A54.73,54.73,0,1,0,96.36,90.61,11.92,11.92,0,0,0,78.78,74.5c-.19.2-.37.41-.54.62a30.93,30.93,0,1,1-.71-40.85,11.93,11.93,0,0,0,18.14-15.5l-.33-.37-.21-.22A54.66,54.66,0,0,0,54.74.35Zm60.42-.2a11.13,11.13,0,0,0-.9,22.24h21.67V96.75a12.32,12.32,0,1,0,24.64.35h0V22.4h20.77A11.13,11.13,0,0,0,181.65.15ZM245.28,0a54.73,54.73,0,1,0,41.63,90.24,11.93,11.93,0,0,0-17.69-16c-.15.17-.3.34-.44.52a30.89,30.89,0,1,1-3.47-43.55,31.86,31.86,0,0,1,2.77,2.68,11.93,11.93,0,1,0,18.14-15.5c-.17-.2-.35-.39-.53-.58A54.74,54.74,0,0,0,245.28,0Z"/></svg>