<svg id="Layer_1" data-name="Layer 1" xmlns="http://www.w3.org/2000/svg" viewBox="0 0 206 20.99"><defs><style>.cls-1{fill:#848484;}</style></defs><title>tinkoff</title><path class="cls-1" d="M8.24,6.15H0V1.08H22.48V6.16H14.24v14h-6Z"/><path class="cls-1" d="M45.52,1.08v19h-5.8V9l-10,11.08H24.6v-19h5.8V12.19l10-11.08Z"/><path class="cls-1" d="M55.51,20.11h-5.8v-19h5.8v7h9.32v-7h5.8v19h-5.8V13H55.51Z"/><path class="cls-1" d="M74.83,20.11v-19h5.8V6.23h6a12.67,12.67,0,0,1,4.24.52,6.42,6.42,0,0,1,4.36,6.36,6.56,6.56,0,0,1-5,6.6,12.79,12.79,0,0,1-3.64.44Zm5.8-4.6h5a5.35,5.35,0,0,0,2.28-.28A2.37,2.37,0,0,0,89.39,13a2.13,2.13,0,0,0-1.56-2.1,6.9,6.9,0,0,0-2.26-.26h-5Z"/><path class="cls-1" d="M103.64,20.11H97.83v-19h5.8V8.27h1.6l7-7.16h7.28l-9.28,9.12,9.64,9.92h-7.72L105.23,13h-1.6Z"/><path class="cls-1" d="M144.39,10.63c0,5.68-4.68,10.08-12.44,10.08s-12.48-4.4-12.48-10.08S124.15.56,132,.56,144.39,5,144.39,10.63Zm-6.08,0c0-3.12-2.52-5.4-6.36-5.4s-6.36,2.28-6.36,5.4,2.48,5.44,6.36,5.44S138.31,13.75,138.31,10.63Z"/><path class="cls-1" d="M175.19,10.63c0,5.44-4.36,8.28-11.68,8.44V21h-5.8V19c-7.28-.16-11.64-3-11.64-8.44s4.36-8.52,11.64-8.68V0h5.8V1.89C170.83,2.07,175.19,5.15,175.19,10.63ZM157.71,6c-4,.16-5.76,2-5.76,4.56s1.76,4.2,5.76,4.36Zm11.56,4.6c0-2.56-1.72-4.4-5.76-4.56V15C167.55,14.79,169.27,13.15,169.27,10.63Z"/><path class="cls-1" d="M206,10.63c0,5.44-4.36,8.28-11.68,8.44V21h-5.8V19c-7.28-.16-11.64-3-11.64-8.44s4.36-8.52,11.64-8.68V0h5.8V1.89C201.63,2.07,206,5.15,206,10.63ZM188.52,6c-4,.16-5.76,2-5.76,4.56s1.76,4.2,5.76,4.36Zm11.56,4.6c0-2.56-1.72-4.4-5.76-4.56V15c4-.16,5.75-1.8,5.75-4.36Z"/></svg>