<?xml version="1.0" encoding="UTF-8"?><svg id="Layer_1" xmlns="http://www.w3.org/2000/svg" viewBox="0 0 1551.28 556.71"><defs><style>.cls-1{fill:#848484;fill-rule:evenodd;}</style></defs><g id="Layer_3"><path class="cls-1" d="M1481.98,153.72h-111.2v20.7l17.9,112c-8.7-3.7-17.7-6.5-27.2-8.5h-.1c-29.8-6.2-58.4-2.8-85.8,10.3-11.3,5.3-21.3,12.5-30,21.4-8.5,8.7-15.4,18.1-20.9,28.4l-19.4-249.3h-218.2l-1,12.3c-9.1-8.1-21.1-12.1-36-12h-.1c-4.2,0-8.4,.1-12.6,.2-11.5,.3-26,.1-43.6-.5h-58.7v28.1h-33.7l-.7-28.1h-67.2v28.2l-12.5,.6v58.1l1.6,.2c1.5,7.5-3.9,11.1-16,11h-50.7l-.3-.1-123.6-2.2c25.1-26.1,30-54.7,14.9-85.8-15.2-31.1-38.5-42.7-69.9-34.8-31.4,7.9-48.4,29.7-50.9,65.3,.1,.2,0,.4-.1,.7s-.1,.5-.2,.5c-.1,.1-.2,0-.3-.1-.1-.2-.2-.5-.2-1l-1.7-4c-4.1-9.5-9.2-17.6-15.3-24.3-11-12.3-23.1-22.9-36.4-31.9-13.2-9-27.7-16.1-43.6-21.3-4.3,2.5-8.4,5-12.3,7.5-4.1,2.6-7.7,5.5-10.6,8.8-.1,.1-.3,.1-.4,.1-3.6-.5-7.3-.8-11-1.1h-.4v-.3c-.1-.7-.2-1.3-.3-1.9-3.7-15.9-10.1-27.9-19.2-36.1-12-10.8-26.6-17.9-43.9-21.3C213.08,.22,194.28-.78,173.78,.62c-.1,0-.2,.1-.3,.2-.8,.2-1.3,.1-1.6-.2h-.4l-3.3,.6c-.1,0-.3,0-.4,.1-.9,.1-1.7,.3-2.6,.4-.1,.1-.3,.1-.4,.1-4.3,.8-8.7,1.6-13,2.3-.1,.1-.3,.1-.4,.1-.5,.1-1,.1-1.5,.2-.1,.1-.3,.1-.4,.1l-3.3,.6v.2l-2.2,.6c-5.1,1.1-9.7,2.5-14,4.1-18.2,6.9-34.1,15.3-47.8,25.2-13.6,10-25.7,21.1-36.3,33.3-2.6,3-5.1,6.1-7.6,9.2s-4.8,6.4-7.1,9.7-4.5,6.6-6.6,10-4.1,6.9-6,10.4c-3.9,7.1-7.5,14.4-10.8,22.1C1.48,144.82-1.02,162.62,.38,183.12c.8,4.6,1.6,9.2,2.4,13.9v.3c.5,.1,.7,.6,.7,1.4,0,.1,0,.3,.1,.4,3.5,9,7.4,17.2,11.7,24.7,8.9,15.5,17.8,30.8,26.6,46,.4,.7,.8,1.2,1.3,1.7-.9,8.5-1,17.6-.2,27.3v.4c.1,.1,.1,.2,.1,.3,.3,.9,.3,1.6-.1,2,.2,.9,.4,1.7,.5,2.6v.4c.1,.1,.1,.3,.1,.4,.4,1.3,.5,2.3,.2,3,.8,4.7,1.6,9.5,2.5,14.2v.4c.5,.5,.8,1.4,.9,2.5v.4l.3,1.5v.4c.5,.1,.8,.6,.7,1.4,.1,.1,.1,.3,.1,.4,5.9,19.5,14,35.7,24.3,48.8,10.4,13.1,21.9,24.5,34.5,34.4,4.9,3.9,10.2,7.3,15.7,10.3-6.3-.5-13.3-.8-21-.9-.1,0-.3,0-.4,.1-.1,0-.2,0-.3,.1-.8,.3-1.3,.2-1.6-.2-.1,.1-.3,.1-.4,.1-.7,.1-1.5,.3-2.2,.4-.1,0-.3,0-.4,.1-3.7,.6-7.4,1.2-11.2,1.9-.1,.1-.3,.1-.4,.1-.5,.1-.9,.1-1.4,.2v.3c-.6,.2-1.2,.3-1.9,.4-5.5,1.7-10.1,4-14,6.7-1.4,1-2.7,1.9-3.8,2.8-13.4,10.3-20.2,25.2-20.4,44.6,.3,2,.7,4,1.1,6v.4c.5,.3,.8,1,.8,2.1v.4c6.3,18.9,15.7,33.3,28.4,43.1,12.4,9.5,28.4,13.9,48,13.2,3.1-.6,6.3-1.2,9.4-1.7h.4c14.5-4.5,24.9-11.9,31.3-22,3-4.6,5.4-9.7,7.3-15.2,1.9-5.4,3.1-11.3,3.7-17.6,16.7,4.1,34.1,7.2,52.3,9.2,17.5,1.9,36.2,2.3,56.1,1,.6-.1,1.2-.1,1.9-.1v.2c1.8-.2,3.6-.4,5.3-.6,.1,0,.3,0,.4-.1,.7-.1,1.5-.1,2.2-.1,.1,0,.1,.1,.1,.2,.6-.1,1.2-.3,1.9-.4h.3c.7-.1,1.3-.2,1.9-.2,0,0,0,.1,.1,.2,.8-.1,1.7-.3,2.6-.5h.3c.7-.1,1.3-.2,1.9-.2,0,0,0,.1,.1,.3,1.1-.2,2.2-.4,3.3-.6,.1-.1,.3-.1,.5-.1,.8-.2,1.7-.3,2.6-.3v.2c2.6-.1,5,.7,7.1,2.4,2.2,1.8,13.4,11.6,33.5,29.4,18.8,16.6,41.5,26.1,68.2,28.5h443.4c3.9,.2,7.7,.3,11.6,.3s7.4-.1,11.1-.3h661.5l7.3-7.3-69.3-395.4ZM466.28,99.92c6.9-6.9,15.3-10.3,25-10.3s18.1,3.4,25,10.3c6.9,6.9,10.3,15.3,10.3,25s-3.4,18.2-10.3,25.1-15.3,10.3-25,10.3-18.1-3.4-25-10.3-10.3-15.3-10.3-25.1,3.4-18.1,10.3-25Zm-157.7,149.5c.2-.3,.5-.4,.8-.5,.7-.1,1.3-.2,1.9-.2l.1,.2h.4c.1-.1,.2-.1,.3-.1,.7-.1,1.3-.2,1.9-.1,0,0,0,.1,.1,.2,2.9-.2,5.7-.3,8.4-.4h.3c1-.2,2-.4,3-.5,.1,0,.3,0,.4-.1,7.2-8.9,14.5-17.8,22-26.5,.1-.1,.2-.1,.3-.1,.6-.1,1.2-.2,1.8-.2,.1,0,.1,.1,.1,.2,1.1-.4,1.8-.4,2.3-.1,.1,.1,.3,.1,.4,0,.5,.1,.7,.6,.7,1.4v.4c.5,1.1,1.4,1.7,2.6,1.8h.4c1.1-.2,2.3-.4,3.4-.6h.3c.9-.2,1.7-.4,2.6-.5,.1,0,.3,0,.4-.1-.1-.1-.1-.3-.1-.4,.9-.1,1.7-.3,2.6-.4h.4c.9-.2,1.7-.4,2.6-.5,.1,0,.3,0,.4-.1,1-.2,2-.4,3-.5,.1,0,.3,0,.4-.1l2.6-.4c.1-.1,.2-.1,.4-.1-.1-.1-.1-.3-.1-.4,1.3-.2,2.7-.4,4.1-.5l.1,.2c16.5-.3,27.4,7.3,32.8,22.7,0,.1,0,.3,.1,.4,.5,.1,.7,.6,.6,1.4,0,.1,0,.3,.1,.4l.9,5.2c0,.1,0,.3,.1,.4v.3c.4,1.1,.4,1.9,0,2.4,.4,3.3,.4,6.2,0,8.7-1.5,8.1-6.6,13.5-15.2,16.3v.1c-.6,.3-1.2,.4-1.8,.5-.1,.1-.3,.1-.4,.1l-1.5,.3c.1,.1,.1,.2,0,.2-2.6,.8-5,1.1-7.1,1-7.8,.7-14.5-.1-20.1-2.5-5.6-2.3-10.8-5.2-15.7-8.5,.1,.1,.1,.2,0,.2-.6,.2-1.2,.4-1.8,.5h-.3c-1.1,.2-2.1,.4-3,.6h-.4c-1,.2-2,.4-3,.6-.1,0-.2,0-.3-.1-13.6-5.9-29.2-9.1-46.7-9.4,4-4.2,7.8-8.5,11.4-12.8Zm-6.8,33.5c9.5,.3,18,2.1,25.6,5.2,15.3,6.1,26.6,17.9,33.9,35.3,3.1,7.3,4.4,14.8,4,22.7h-.1v.1c-10.3-2.6-20.5-5.4-30.4-8.3-16.2-4.9-32.7-9.3-49.5-13.3-16.7-4-35.6-4.8-56.7-2.5v-.1q-.1,0-.2,.1c-.7,.3-1.1,.2-1.4-.1-.1,0-.2,0-.3,.1-3.5,.4-6.6,1-9.4,1.8-.3,.1-.5,.2-.7,.3-.3,.1-.5,.2-.8,.3s-.5,.2-.7,.3-.5,.2-.7,.3-.3,.2-.4,.2c-2.5,1.4-3.9,.5-4-2.6h0l.1-.1v-.1c0-.1,0-.2-.1-.3-.1-.5-.1-1-.2-1.5h.2c-.1-.6-.2-1.2-.3-1.9s-.3-1.3-.5-2c-.1-.6-.3-1.2-.4-1.9-.2-.6-.4-1.2-.6-1.9-2.5-8.9-6.6-15.9-12.1-21h.3l-.1-.1c10.4-1.9,20.8-3.7,31.3-5.5,.1-.1,.3-.1,.4-.1,.7-.1,1.3-.2,1.9-.2v.3c4-.6,8-1.1,12.1-1.5,20.7-2.1,40.7-2.7,59.8-2Zm-109.5,83.8c-1.4,.7-2.2,.5-2.4-.6h.4c0-.1,0-.3-.1-.4,1-4.6,2.4-8.8,4.2-12.7,.1-.1,.1-.3,.1-.4,7-4.1,15-7.6,24-10.3,.1-.1,.2-.1,.3-.2v-.3l1.8-.3c.1,0,.3,0,.4-.1l10.5-1.8c.1,0,.2,0,.3-.1,.7-.1,1.3-.2,1.9-.3,.1,0,.3,0,.4-.1,.9-.2,1.7-.3,2.6-.3l.1,.2h.3c.1-.1,.3-.1,.4-.1,.6-.1,1.2-.2,1.9-.1v.2c20.1-.7,38.4,.9,54.9,5,8.5,2.1,16.5,4.7,24.1,7.8,.9,.3,1.9,.7,2.9,1,.9,.4,1.9,.8,2.8,1.1,1,.3,2,.6,2.9,.9,1,.3,2,.6,2.9,.9,11.7,3.3,23.4,6.4,35.3,9.3-.5,4.5-2.7,7.7-6.8,9.6-.1,.1-.3,.1-.3,.3-2.3,.7-4.3,1-6,.9-1.7,0-3.4-.3-4.9-.8-9.5-3.2-19.2-6.2-29-9.1-16.3-4.7-34.5-6.7-54.4-6.2-.1,0-.2,0-.3,.1-.8,.3-1.3,.2-1.6-.1h-.4c-.2,.1-.4,.1-.7,.1-.1,.1-.3,.1-.4,.2-.8,.3-1.3,.2-1.6-.2h-.3c-.3,.1-.5,.1-.8,.2-.1,0-.2,0-.3,.1-.9,.3-1.6,.3-2-.1-.1,0-.2,0-.3,.1-2.7,.1-5.5,.4-8.4,.7-.1,0-.2,0-.3,.1-.8,.3-1.3,.2-1.6-.2-.1,.1-.3,.1-.4,.1h-.3c-.2,.1-.3,.1-.4,.1-.8,.3-1.3,.3-1.6-.1-.1,0-.2,0-.3,.1-.5,.1-1.1,.1-1.6,.2-.1,.1-.2,.1-.3,.1-1.1,.3-1.8,.3-2.3,0-.1,0-.3,0-.4,.1-.3,.1-.5,.1-.8,.1-.1,0-.2,.1-.3,.2-.8,.2-1.3,.1-1.6-.2h-.3c-.7,.1-1.3,.3-1.9,.4-.1,0-.3,0-.4,.1-.9,.3-1.5,.2-1.9-.1-.1,0-.3,0-.4,.1-.3,0-.5,0-.7,.1-.1,0-.3,0-.4,.1-.8,.3-1.3,.2-1.6-.2-.1,0-.3,0-.4,.1l-1.8,.3c-.1,0-.3,0-.4,.1-.8,.3-1.3,.3-1.5-.1h-.4c-2.1,.4-4.2,.6-6.1,.7-.1,.1-.2,.1-.3,.1-1.2,.4-2.1,.4-2.7,0-.1,.1-.3,.1-.4,.1-.6,.1-1.2,.3-1.9,.4h-.3l-1.5,.3c-.1,0-.3,0-.4,.1l-1.5,.2c-.1,0-.2,0-.3,.1-.8,.3-1.3,.2-1.6-.1h-.4c-.7,.1-1.5,.3-2.2,.4-.1,.1-.3,.1-.4,.1-2.5,.4-5,.8-7.5,1.3-.1,.1-.2,.1-.3,.1-.8,.1-1.6,.2-2.3,.4q.1,.1,0,.2Zm-56.1-232.8c14.2-9.6,31-17.3,50.5-23.2,.1-.1,.3-.1,.4-.1v-.4c.5-.1,.9-.1,1.4-.2,.1-.1,.3-.1,.4-.1,.5-.1,1-.2,1.5-.2,.1-.1,.3-.1,.4-.1-.1-.1-.1-.3-.1-.4,.5-.1,1-.1,1.5-.2,.1-.1,.3-.1,.4-.1s.2,0,.4-.1c.1,0,.2,0,.3-.1,0-.1,0-.2-.1-.3,1.3-.2,2.5-.4,3.8-.5l.1,.2c1-.2,2-.4,2.9-.5,.1-.1,.3-.1,.4-.1,.8-.1,1.5-.2,2.2-.2l.1,.2c.7-.1,1.5-.3,2.3-.4,.1-.1,.2-.1,.3-.1,.7-.1,1.3-.1,1.9-.1,0,0,0,.1,.1,.2,17.5,2.8,33,8.6,46.4,17.3,4.2,2.7,7.9,5.3,11,7.6l.1-.3c.1-.5,.1-1.1-.1-2v-.3l-.7-3.8c0-.1,0-.3-.1-.4-.1-.5-.1-1-.2-1.5-.1-.1-.1-.2-.1-.3-.1-.3-.1-.5-.1-.8,12.2-.7,20.7,3.8,25.6,13.5,0,.1,.1,.1,.2,.1,.2,.9,.4,1.7,.5,2.6,0,.1,0,.3,.1,.4,.7,1.7,1.1,3.8,1.2,6.2q0,.1-.1,.1v.4c-.2,9.8-.4,19.6-.6,29.3-16.9-2.1-34.1-4-51.4-5.5-18.5-1.5-37.4-2.5-56.7-2.9-19.3-.3-39-.1-59.1,.8-.1,.1-.2,.1-.3,.1-.9,.3-1.6,.3-2-.1-.1,.1-.2,.1-.3,.1-1.1-.1-2.4,0-3.9,.3h-.3c-.9,.3-1.6,.3-2,0-.1,0-.2,0-.3,.1-.1,0-.3,0-.4,.1-.1,0-.3,0-.4,.1-.9,.3-1.5,.2-1.9-.1h-.3c-.3,.1-.6,.1-.8,.1-.1,.1-.3,.1-.4,.2-.7,.3-1.2,.2-1.5-.2-.2,0-.3,0-.4,.1-.3,0-.5,0-.8,.1-.1,0-.2,0-.3,.1-.9,.3-1.6,.3-2-.1-.1,0-.3,0-.4,.1-1.2,.3-2.1,.2-2.7-.3,8.7-13.4,20.2-24.9,34.4-34.4Zm-69.3,95.3c0-.1,0-.3-.1-.4l-.9-5.2c0-.1,0-.3-.1-.4-.1-.7-.2-1.5-.3-2.2,.8-13.3,4.1-24.9,9.8-34.8,0-.1,.1-.1,.2-.1l1.5-.3h.4c1-.2,2-.4,3-.5,.1-.1,.2-.1,.3-.1,.9,.3,2.1,.2,3.5-.2,.1-.1,.2-.1,.4-.1,.6-.1,1.2-.3,1.8-.4h.4c.6,.3,1.5,.3,2.7-.1h.4l1.5-.3h.3c.4,.3,1,.3,1.9,0,.1,0,.3,0,.4-.1,.7-.1,1.5-.3,2.2-.4h.4c.3,.4,.8,.4,1.6,.1,.1-.1,.3-.1,.4-.1,.3-.1,.7-.1,1.1-.2,.1-.1,.3-.1,.4-.1,.6,.3,1.5,.3,2.6,0,.1,0,.3,0,.4-.1,.4-.1,.8-.1,1.1-.2,.1,0,.3,0,.4-.1,.5,.4,1.3,.4,2.3,0,.1-.1,.3-.1,.4-.1l1.8-.3c.1,0,.3,0,.4-.1,.3,.4,.8,.5,1.6,.2,.1-.1,.2-.1,.3-.1,.3-.1,.5-.1,.8-.2h.3c.5,.3,1.3,.3,2.3,0,.2-.1,.3-.1,.4-.1,.3,0,.5,0,.7-.1,.2-.1,.4-.1,.5-.1,.5,.3,1.2,.3,2.3,0,.1,0,.2,0,.3-.1,.4-.1,.8-.1,1.1-.2h.4c.3,.3,.8,.4,1.6,.1,.1-.1,.3-.1,.4-.1,.2,0,.4,0,.7-.1,.1,0,.3,0,.4-.1,.3,.4,.8,.5,1.5,.2,.1-.1,.3-.1,.4-.1,.3-.1,.5-.1,.8-.2h.3c.3,.3,.9,.4,1.6,.1,.1-.1,.3-.1,.4-.1,.2-.1,.4-.1,.7-.1,.1-.1,.3-.1,.4-.1,.3,.4,.8,.5,1.6,.2,.1-.1,.2-.1,.3-.1,.3-.1,.5-.1,.8-.2h.3c.3,.4,.9,.4,1.6,.1,.1,0,.3,0,.4-.1,.2,0,.4,0,.7-.1,.1,0,.3,0,.4-.1,.3,.4,.8,.5,1.6,.2,.1-.1,.2-.1,.3-.2,.3,0,.5,0,.7-.1,.1,0,.3,0,.4-.1,.3,.4,.9,.5,1.6,.2,.1-.1,.3-.1,.4-.1,.2,0,.4,0,.7-.1,.1-.1,.3-.1,.4-.1,.3,.4,.8,.5,1.6,.2,.1-.1,.2-.1,.3-.2h.4c.1,0,.2,0,.4-.1,.3,.4,.8,.5,1.5,.2,.1-.1,.3-.1,.4-.1,.3-.1,.5-.1,.8-.1,.1-.1,.2-.1,.3-.1,.3,.3,.9,.4,1.6,.1,.1,0,.3,0,.4-.1,19.9-.6,39.3-.4,58.1,.6,18.9,1,37.2,2.8,54.9,5.5,2.6,.4,5.2,.8,7.7,1.2,2.6,.5,5.2,.9,7.8,1.4s5.2,.9,7.7,1.4c2.6,.5,5.2,1.1,7.8,1.6-1.3,18.7-7.4,34-18.3,45.9-9.4,10.2-22.4,17.9-38.9,23.1h-.4l-1.8,.3v.4c-.1,0-.3,0-.4,.1-.2,0-.4,0-.7,.1-.1,0-.3,0-.4,.1-.6,.1-1.2,.2-1.9,.3-.1,0-.2,0-.3,.1-2.6,.4-5.2,.8-7.8,1.3-.1,.1-.3,.1-.5,.1-.5,.1-.9,.2-1.4,.3h-.4c-.6,.1-1.2,.3-1.8,.4-.1-.1-.1-.2-.1-.2-.7,0-1.3,0-1.9,.1-4.9,0-9.6-.4-14.2-1.2-17.1-3.2-31.7-10.1-43.8-20.6,0,.1,0,.2-.1,.3-8.9,8-20.1,14.4-33.5,19.1-.1,.1-.3,.1-.4,.1l-1.5,.3c.1,.1,.1,.2,.1,.3-.1,0-.2,0-.4,.1-.2,0-.4,0-.7,.1-.1,0-.3,0-.4,.1-1.7,.3-3.5,.6-5.2,.9-1.4,.3-2.7,.4-3.8,.3-7.9-.6-14.8-2.5-20.9-5.6-10.8-5.5-19-14.8-24.6-27.7v-.3c-.1-.5-.2-1-.3-1.5Zm76.3,269.8c-4.8,6.9-11.6,12.4-20.5,16.5-4.7,2.1-9.6,3-14.9,2.6-18.3-1.6-30.9-11.5-37.6-29.7h-.2c-.5-2-.9-4-1.3-5.9,.1,0,.3,0,.5-.1-.1-.1-.1-.3-.1-.4l-.3-1.5c-.1-6.7,.8-12.7,2.5-18.2v-.3c5.3-5.9,12.8-10.3,22.4-13.2h.3v-.4c3.2-.5,6.4-1.1,9.7-1.6v.2c.4,0,.8,0,1.1-.1,.1-.1,.3-.1,.4-.1,.7-.1,1.5-.2,2.2-.2,.1,0,.1,.1,.1,.2,4.5-.1,8.9,.1,13.1,.5q.1,.1,.1,.2c.7,1.7,1.3,3.4,2,5.1,.6,1.7,1.2,3.3,1.8,5,.7,1.7,1.3,3.4,1.8,5.1l1.8,5.1c.1,.1,.1,.3,.1,.4,5,3.1,9.4,7,13.3,11.7,1.1,1.2,1.9,2.7,2.6,4.4,.5,.1,.7,.6,.7,1.4v.3c1.2,5.5,.7,9.9-1.6,13Zm-19.6-102.8c-6.2-5.1-12.2-10.6-18-16.4-11.4-11.5-20.2-26.8-26.3-45.8-.1,0-.2,0-.2-.1-.3-.5-.4-1.1-.5-1.8-.1-.1-.1-.2-.1-.3,0-.3,0-.5-.1-.8h-.2c-.3-.7-.5-1.4-.6-2.1,0-.1,0-.3-.1-.4-.5-1.3-.8-2.8-1.1-4.4h-.2c-.3-.7-.5-1.5-.6-2.2,0-.1,0-.3-.1-.4-.1-.7-.2-1.5-.3-2.3-.2,.1-.3,.1-.3,0-.2-.5-.3-1.1-.4-1.7-.1-.1-.1-.3-.1-.4l-.3-1.5c0-.1,0-.3-.1-.4-.1-.7-.2-1.5-.3-2.2-.1-.1-.1-.3-.1-.4-.6-3.3-1.2-6.7-1.8-10.1v-.4c-.2-.9-.4-1.7-.5-2.6,0-.1,0-.2-.1-.3-.1-.5-.1-1.1-.2-1.6-.1-.1-.1-.2-.1-.3l-.3-1.5c.2,0,.3,0,.4-.1v-.4c-.1-.5-.2-.9-.3-1.4,0-.1,0-.3-.1-.4-.1-.6-.2-1.2-.3-1.9,.1,0,.3,0,.4-.1-.1-.1-.1-.2-.1-.3-.1-.5-.1-1-.2-1.5-.1-.1-.1-.3-.1-.4l-.3-1.5h.4v-.4c-.2-.9-.4-1.7-.5-2.6,.4-.2,.5-.6,.2-1.2-.1-.1-.1-.3-.1-.4-.1-.1-.1-.3,0-.4l-.3-1.5h.3v-.4c-.1-.1-.1-.3-.1-.4s0-.2-.1-.3c-.1-.5-.1-1-.2-1.5,.1-.1,.3-.1,.4-.1-.1-.1-.1-.3-.1-.4v-.3c.1-5.3,.3-10.7,.4-16.2q0-.1,.1-.1c11.9,10.9,26.8,17.4,44.7,19.5,3.3,.4,6.9,.4,10.7,0,.7-.1,1.5-.1,2.2-.2,.1,0,.1,.1,.1,.2l9-1.6h.3c0-.2,0-.3-.1-.4,.7-.1,1.3-.2,1.9-.3,.1,0,.3,0,.4-.1,.1,0,.3,0,.4-.1h.4c-.1-.1-.1-.3-.1-.4l1.8-.3c.2-.1,.3-.1,.4-.1s.3,0,.4-.1v-.3c.5-.1,.9-.2,1.4-.3h.4c9.9-3.5,18.4-7.9,25.4-13.3,.1-.1,.3-.1,.4-.1,8,7,16.7,13.1,26,18.4h.3q.1,0,.2,.1c.1,.7-.4,1.1-1.6,1h-.4c-.2,.1-.4,.1-.7,.1v.2c-.7,.3-1.5,.5-2.2,.6-.1,0-.3,0-.4,.1-.2,0-.4,0-.7,.1v.2c-.6,.2-1.2,.4-1.8,.5h-.4l-1.5,.3c.1,.1,.1,.2,0,.2-.5,.3-1.1,.4-1.8,.5-.1,.1-.2,.1-.3,.1l-1.5,.3v.2c-.9,.3-1.7,.5-2.6,.6-.1,0-.2,0-.3,.1l-1.6,.2,.1,.2c-.7,.3-1.5,.5-2.2,.6-.1,0-.3,0-.4,.1-.7,.1-1.5,.2-2.2,.3v.2c-.6,.3-1.2,.5-1.8,.6h-.4c-1.3,.3-2.5,.5-3.8,.7l.1,.2c-1.5,.3-2.9,.6-4.4,.9-.1,.1-.3,.1-.4,.1-.5,.1-1,.1-1.5,.2v.3c-1,.3-2,.5-3,.7h-.3c-.7,.1-1.5,.3-2.3,.4-.1,.1-.2,.1-.3,.1-4.1,.7-8.2,1.5-12.3,2.2h-.4c-1.4,.5-2.6,.5-3.5,.2-.1,0-.2,0-.3,.1-1.7,.3-3.3,.5-4.9,.8-.1,0-.2,0-.3,.1-.9,.3-1.6,.3-2,0h-.4c-.2,.1-.4,.1-.7,.2-.1,0-.3,0-.4,.1-.9,.3-1.5,.2-1.9-.1h-.4c-.9-.1-2.1,0-3.4,.3,.4,.5,.8,.9,1.2,1.4s.8,.9,1.2,1.4l1.3,1.3c.5,.4,.9,.8,1.4,1.2,.1,.1,.1,.2,.1,.3,2.7-.2,5.4-.3,8-.3h.5c.6-.1,1.2-.2,1.8-.2v.2c.8-.1,1.6-.3,2.3-.4,.1,0,.3,0,.4-.1,1.1-.2,2.3-.3,3.4-.3v.2c.6-.1,1.2-.3,1.8-.4,.2,0,.3,0,.4-.1,1.1-.2,2.3-.3,3.4-.4l.1,.2c3.8-.7,7.6-1.3,11.5-2,.1,0,.3,0,.4-.1,0-.1,0-.3-.1-.4,1.1-.1,2.1-.3,3-.5h.4c1.3-.3,2.5-.5,3.7-.7h.4c0-.1,0-.3-.1-.4l1.5-.3c.1,0,.3,0,.4-.1,.3,0,.5,0,.7-.1h.4v-.4c.9-.2,1.7-.3,2.6-.3l.1,.2c8.1,2.2,13.9,7.6,17.4,16.2,0,.1,0,.3,.1,.4,.5,.2,.7,.8,.7,1.8v.3l.3,1.5c0,.1,0,.3,.1,.4,.4,.1,.6,.6,.6,1.4v.4c.1,.4,.2,.8,.2,1.1,.1,.1,.1,.3,.1,.4,.5,.1,.7,.6,.7,1.4v.4c.1,.1,.1,.3,.1,.4s0,.2,.1,.3c.5,.3,.7,.9,.7,1.8v.4c.1,.3,.1,.5,.1,.8,0,.1,0,.2,.1,.3h.2c.6,.9,.5,1.5-.3,1.6-2.7,1.1-5.3,2.1-8,3-14.5,4.9-21.8,14.8-22.1,29.6,.4,2,.8,4,1.1,6,0,.1,0,.2,.1,.3,.4,.1,.6,.6,.6,1.5,0,.1,0,.2,.1,.3,0,.1,0,.3,.1,.4,.4,1.8,.9,3.5,1.6,5.1v.3c-3.8,3.2-6,7.5-6.6,12.8,.5,4.4,1.8,7.8,3.7,10.2q0,.1,.1,.1v.2c5.7-1.9,11.4-3.9,17-6,.1-.1,.3-.1,.4-.1-.1-.1-.1-.3-.1-.4,.5-.1,1-.1,1.5-.2,.1-.1,.3-.1,.4-.1,5.5-1.9,11.2-3.5,17.2-5h.4c-.1-.1-.1-.3-.1-.4,1-.1,2-.3,3-.5,.1-.1,.3-.1,.4-.1,.7-.1,1.5-.3,2.2-.4h.4c0-.1,0-.3-.1-.4,.6-.1,1.2-.3,1.9-.4h.3l3-.6h.4c5.3-.9,10.7-1.9,16-2.8,.1-.1,.3-.1,.4-.1,.5-.1,1-.1,1.5-.2,.1-.1,.3-.1,.4-.1,1.1-.2,2.3-.3,3.4-.4v.2c.3-.1,.5-.1,.8-.2h.3l2.7-.5h.3c.7-.2,1.5-.3,2.3-.3v.2c.3,0,.5,0,.8-.1,.1,0,.2,0,.3-.1,.7-.1,1.3-.1,1.9-.1,.1,0,.1,.1,.1,.2,.6-.1,1.2-.3,1.9-.4h.3c.7-.1,1.3-.2,1.9-.1l.1,.1c.2,0,.4,0,.7-.1,.1,0,.3,0,.4-.1,.7-.1,1.5-.2,2.2-.2,0,0,0,.1,.1,.2,1.4-.3,2.7-.4,3.8-.3h.4c.6-.1,1.2-.2,1.8-.1,.1-.1,.1,0,.1,.1h.4c20-.7,38.6,.6,55.7,4-6.5,4.9-13.4,9.5-20.5,13.9-14.9,9.1-32.1,16.5-51.7,22.2,.1,.2,.1,.3,0,.3-.5,.2-1.1,.4-1.7,.5-.1,0-.3,0-.4,.1-.5,.1-1,.1-1.5,.2v.2c-.7,.3-1.5,.5-2.2,.6-.1,0-.3,0-.4,.1l-1.5,.2c-.1,0-.2,0-.3,.1-.4,.1-.8,.1-1.2,.1v.2c-.5,.3-1.1,.5-1.8,.6h-.4c-.6,.1-1.2,.2-1.8,.3-.1,.1-.3,.1-.4,.1-4.4,1-8.5,1.6-12.3,1.8-.1,0-.3,0-.4,.1-1,.1-2,.3-3,.5-.1,0-.3,0-.4,.1-.7,.3-1.2,.2-1.5-.1-18.5,1.6-34.9,.2-49.1-4.2-16.1-5.1-30.3-12.7-42.7-22.9Zm576.5,92.6c-.3,.3-.6,.7-.9,1.1-8.2,11.6-20.2,21.1-36.1,28.5-1.7,.9-3.5,1.7-5.4,2.4-8.2,3.5-17,6.2-26.5,8.3-4.4,1.1-8.8,1.9-13.3,2.6-6.3,.9-12.5,1.5-18.8,2-6.1,.4-12.3,.6-18.4,.6h-18.5l-132.6,.4,58.5-335.5,151.8-.1c9.2,.8,19.7,4.2,31.6,10.1,11.9,6,21,16,27.4,30,6.5,14,8.2,29.8,5.1,47.3-4.7,26.9-19.1,46.3-43.4,58.4,1.3,.5,2.7,.9,4,1.3,16.1,3.8,29.8,11.5,41.1,23,7.9,8,13,17.5,15.3,28.6,7.1,33.7,.1,64.1-20.9,91ZM899.88,104.32c12.7,.7,25.4,.9,38.1,.6,4.1-.1,8.2-.2,12.3-.2,17.3-.2,29.2,7.4,35.6,22.8,1.4,7.1,2,14.4,1.9,21.7l-.3,21c-.4,35.3-.7,70.7-.8,106h-36.9V139.82c-.3-3.7-2.6-5.9-6.8-6.6-5.1-.1-7.9,1.7-8.4,5.6l-2.3,137.4h-34.9l2.5-171.9Zm-49,0h36.5v31.2h-36.5v-31.2Zm-.9,43.7h36.1v127.8h-36.1v-127.8Zm-100.7-16.2v-27.4h36.2l.7,28.1h52.4l-.6,30-53.1,.6-.3,12.3c-.3,12.5-.7,25.1-1,37.7-.1,1.8-.1,3.6-.1,5.5v5.5c0,1.8,0,3.6,.1,5.4,.1,1.9,.2,3.7,.3,5.5,.3,4.3,2,7.8,5.2,10.3l1.2,.9c.3,.1,.6,.3,.9,.5,9.1,1.3,13.4-8,13.1-28h34.1c1.8,22.3-2.4,38.1-12.5,47.3-8.5,7.9-20.8,11.3-36.8,10.4-2.9-.1-5.9-.4-9-.9-20.4-2.9-30.9-17.7-31.4-44.4,.1-22.6,0-45.2-.3-67.8l-11.6-1.5v-29.3h0l12.5-.7Zm251.2,308.6c-.9,26.3-11.5,47.9-31.8,64.7-4.6,3.8-9.6,7.1-15,9.9-2.4,1.3-4.8,2.5-7.3,3.6-23.5,10.8-48.4,16.1-74.8,16-21.9-.1-43.5-2.4-65-7-9.3-2-17.8-5-25.5-9-15.5-8.1-27.7-20.2-36.6-36.4-4.6-8.5-7.2-17.5-7.7-27-.3-5.3-.5-10.5-.6-15.8-.1-5.3,0-10.5,.2-15.8,.1-5.3,.4-10.5,.9-15.8s1-10.5,1.7-15.7c1.5-11.5,2.8-23,3.8-34.5,1.4-17.1,2.8-34.1,4.3-51.2,.2-2.7,.3-5.5,.3-8.3h83.8c-.1,1.5-.1,3.1-.2,4.7,0,1.5,0,3-.1,4.5-.4,7.9-.9,15.7-1.6,23.6-.1,1.2-.1,2.4-.2,3.5-2.7,31.8-3.7,63.6-3,95.5,.2,9.3,4,17,11.4,23.2,12.5,10.6,27,13.6,43.5,9,9.3-2.5,16.9-7.4,22.8-14.6,4.8-5.7,7.4-12.3,7.7-19.7,1.5-32.3,2.6-64.6,3.4-96.9,.2-9.9,.4-19.9,.6-29.8v-3h83.7l.2,24.1c.1,2.9,.1,5.8,.2,8.7v15.3c.1,18.4,.4,36.8,1,55.2,.4,13,.4,26-.1,39Zm2.3-189.2c-.9-5.7-1.4-11.5-1.5-17.2-.1-5.1-.1-10.2-.2-15.3h33.1c-.2,21.5,3.2,32.4,10.1,32.8,1.6,.1,3-.2,4.2-.7,4.2-1.7,6.5-6.7,6.9-15.1,.3-7.9,.3-16.3,0-25.3l-.5-10.1c-2.1,1.5-4.3,2.8-6.4,3.9-10.5,4.9-21.4,3.6-32.5-3.9-9.9-6.7-14.7-16-14.3-28-.1-.7-.1-1.4-.2-2.1-.2-2.5-.4-5.1-.5-7.7l.7-58.2h36.2l-.2,58.2c.3,2.3,1.1,4.2,2.4,5.7,.7,.9,1.4,1.5,2.3,2,1.1,.7,2.3,.9,3.7,.8,.8-.1,1.6-.3,2.4-.6,1.5-.7,2.8-1.8,3.9-3.5,.9-1.3,1.6-2.7,2.1-4.4l1.6-58.2h36.2l-.5,58.2c-.3,24.7-.5,49.5-.8,74.3,0,2.7-.2,5.5-.6,8.2-.5,3.4-1.2,6.8-2.2,10.1-.9,3.1-2.2,6-4,8.7-6.5,9.6-15.7,15.1-27.5,16.6-2.7,.3-5.5,.5-8.2,.6-6.4,.1-12.7-.5-19-1.8-15.5-3.5-24.4-12.8-26.7-28Zm19.7,281.9l-3.3-235h83.1l10,235h-89.8Zm111.9,0l-21.5-431.9,77.7,.4,33.5,431.5h-89.7Zm308.2,0h0l-5-26.5c-.5,.8-1.1,1.6-1.6,2.4-.5,.9-1,1.7-1.6,2.4-.6,.8-1.2,1.6-1.8,2.3-.6,.7-1.2,1.5-1.9,2.2-.6,.7-1.3,1.3-2,2-.3,.2-.5,.4-.7,.7-15.2,13.4-32.9,20.7-53.1,21.8-30.8,1.8-59.3-5.4-85.6-21.6l-.4-.2c-21.3-13.3-37.5-31.2-48.6-53.7-13.3-26.7-17.7-54.8-13.3-84.3,3.5-23.3,13.5-43.3,29.8-60.1,7.3-7.5,15.8-13.6,25.5-18.2,24.3-11.5,49.6-14.5,76-9,19.5,4,37,12.1,52.6,24.3l-22-148.3h80l63.7,363.8h-90Z"/><path class="cls-1" d="M580.68,321.92c19.1-1.3,31.8-10.4,38-27.5,1.5-4.5,1.6-8.9,.3-13.4-4.4-14.3-14.3-21.5-29.6-21.8h-23.2l-7.7,61.5c7.3,1.4,14.7,1.8,22.2,1.2Z"/><path class="cls-1" d="M624.38,414.72c-.1-1.5-.3-3-.5-4.5h0c-.7-4-2.3-7.6-4.8-10.9-4.1-5.3-9.5-8.8-16.2-10.5-1.4-.3-2.8-.6-4.2-.7-6.5-.5-13-.8-19.5-.7h-31.7l-7.8,73c1.4,.8,4.8,1.3,10.3,1.5,3.3,.2,7.4,.3,12.2,.2,6.9-.1,13.7-.4,20.5-.8,1.7-.1,3.3-.2,5-.3,1.7-.1,3.3-.3,5-.6s3.3-.6,5-.9c1.6-.4,3.2-.8,4.9-1.3,6.5-2,11.7-5.7,15.8-11.1,.7-.9,1.2-1.7,1.7-2.6,2.5-5.1,3.9-10.5,4.4-16.2,.1-1.5,.2-3,.3-4.5,0-1.5,0-3.1-.1-4.6,0-1.5-.1-3-.3-4.5Z"/><path class="cls-1" d="M1424.58,402.22c-8.5-24.3-25.8-38.4-51.9-42.2-15.5-2.4-29.2,1.4-41.3,11.3-7,5.7-11.6,13-13.9,21.9-.5,2.1-1,4.1-1.5,6.2-1.1,24.5,9.2,43.2,30.7,56.1,19.9,11.9,39.8,12.2,59.7,1,6.2-3.6,11.1-8.5,14.7-14.8,7.1-12.5,8.3-25.6,3.5-39.5h0Z"/></g></svg>