<svg id="svg8" xmlns="http://www.w3.org/2000/svg" viewBox="0 0 192 192"><defs><style>.cls-1{fill:#848484;}</style></defs><title>vk</title><path class="cls-1" d="M125.44,0H66.56C12.8,0,0,12.8,0,66.56v58.88C0,179.2,12.8,192,66.56,192h58.88C179.2,192,192,179.2,192,125.44V66.56C192,12.8,179.2,0,125.44,0ZM155,137H141c-5.34,0-6.9-4.26-16.4-13.8-8.3-8-11.86-9-13.94-9-2.82,0-3.66.8-3.66,4.8v12.55c0,3.45-1.1,5.45-10,5.45-14.83,0-31.13-9-42.7-25.58C37,87.1,32.2,68.71,32.2,65c0-2.12.8-4,4.8-4H51c3.58,0,4.92,1.57,6.27,5.44,6.84,20,18.39,37.38,23.13,37.38,1.78,0,2.6-.82,2.6-5.34V77.86c-.56-9.49-5.56-10.27-5.56-13.64v0A3.37,3.37,0,0,1,81,61h22c3,0,4,1.59,4,5.15V93.93c0,3,1.29,4,2.18,4,1.78,0,3.26-1,6.52-4.3C125.79,82.35,132.91,65,132.91,65A6,6,0,0,1,139,61h14c4.23,0,5.12,2.15,4.23,5.15h0c-1.83,8.18-18.83,32.18-18.83,32.18-1.49,2.37-2.08,3.56,0,6.23,1.48,2.09,6.37,6.23,9.64,10.09,6,6.76,10.66,12.45,11.81,16.4S159,137,155,137Z"/></svg>