<svg id="tsech-logo" xmlns="http://www.w3.org/2000/svg" width="53" height="31" viewBox="0 0 53 31">
  <g id="tsech-logo-2" data-name="tsech-logo" opacity="0.6">
    <path id="Path_142" data-name="Path 142" d="M11.55,55V69.009H5.311V55H0V73.262H14.355v3.606h4.76V69.009H16.861V55Z" transform="translate(0 -45.868)" fill="#fff"/>
    <path id="Path_143" data-name="Path 143" d="M131.271,59.267V55H118.519V73.263h12.752V69H123.83V66.064h6.977V62.215H123.83V59.267Z" transform="translate(-97.775 -45.87)" fill="#fff"/>
    <path id="Path_144" data-name="Path 144" d="M212.662,55.009l-2.856,5.821h-.1l-2.844-5.821h-6.188l5.338,9.009v.1l-5.324,9.151H206.3l3.208-5.5,3.106,5.5h5.912l-5.574-9.124v-.1l5.6-9.034Z" transform="translate(-165.551 -45.876)" fill="#fff"/>
    <rect id="Rectangle_78" data-name="Rectangle 78" width="16.874" height="5.915" transform="translate(35.635)" fill="#959595"/>
  </g>
</svg>
