<svg width="34" height="32" viewBox="0 0 34 32" fill="none" xmlns="http://www.w3.org/2000/svg">
<path d="M6.02083 0H27.9792C31.3083 0 34 2.59829 34 5.81197V26.188C34 29.4017 31.3083 32 27.9792 32H6.02083C2.69167 32 0 29.4017 0 26.188V5.81197C0 2.59829 2.69167 0 6.02083 0Z" fill="#3E3E3E"/>
<path d="M13.6566 19.1453H8.38658L7.30991 22.3727C7.28158 22.4957 7.16824 22.5778 7.04074 22.5641H4.37741C4.22158 22.5641 4.17908 22.4821 4.22158 22.318L8.78324 9.69573C8.82574 9.55898 8.86824 9.4359 8.92491 9.2718C8.98157 8.98462 9.00991 8.68376 9.00991 8.38291C8.99574 8.31453 9.05241 8.24616 9.12324 8.23248H9.16574H12.7924C12.8916 8.23248 12.9624 8.27351 12.9766 8.34188L18.1474 22.2906C18.1899 22.441 18.1474 22.5094 18.0057 22.5094H15.0449C14.9457 22.5231 14.8466 22.4547 14.8182 22.359L13.6566 19.0769V19.1453ZM9.20824 16.4239H12.8066C12.7216 16.1368 12.6082 15.7949 12.4807 15.4393C12.3532 15.0701 12.2257 14.6735 12.0982 14.2633C11.9566 13.8393 11.8291 13.4291 11.6874 13.0051C11.5457 12.5812 11.4182 12.1846 11.3049 11.788C11.1916 11.4051 11.0924 11.0496 10.9932 10.7214H10.9649C10.8374 11.3094 10.6816 11.8974 10.4832 12.4855C10.2707 13.1419 10.0582 13.8256 9.83158 14.5094C9.64741 15.2068 9.42074 15.8496 9.20824 16.4239V16.4239Z" fill="#808080"/>
<path d="M26.4913 17.9145H22.0005C22.0572 18.3385 22.1988 18.7624 22.4397 19.1316C22.6947 19.5009 23.0488 19.788 23.4738 19.9521C24.0405 20.1846 24.6638 20.3077 25.2872 20.294C25.783 20.2803 26.2788 20.2393 26.7605 20.1436C27.1997 20.0889 27.6247 19.9795 28.0213 19.8291C28.0922 19.7744 28.1347 19.8017 28.1347 19.9385V22.0308C28.1347 22.0855 28.1205 22.1402 28.1063 22.1949C28.078 22.2359 28.0497 22.2633 28.0072 22.2906C27.5538 22.4821 27.0863 22.6188 26.5905 22.7009C25.9247 22.8239 25.2588 22.8786 24.5788 22.865C23.5022 22.865 22.5955 22.7009 21.8588 22.3863C21.1647 22.0992 20.5555 21.6479 20.0738 21.0872C19.6205 20.5539 19.2947 19.9521 19.0963 19.2957C18.898 18.653 18.7988 17.9829 18.7988 17.2992C18.7988 16.5607 18.9122 15.8359 19.153 15.1248C19.3797 14.441 19.7338 13.812 20.2155 13.2513C20.683 12.7043 21.2638 12.2667 21.9297 11.9521C22.5955 11.6376 23.3888 11.5282 24.2955 11.5282C25.0463 11.5145 25.7972 11.6513 26.4913 11.9521C27.0722 12.1983 27.5822 12.5675 27.9788 13.0462C28.3472 13.5111 28.6447 14.0308 28.8288 14.6051C29.013 15.1521 29.098 15.7128 29.098 16.2735C29.098 16.6017 29.0838 16.8889 29.0697 17.1487C29.0413 17.4086 29.0272 17.6 29.013 17.7231C28.9988 17.8188 28.9138 17.9009 28.8147 17.9009C28.7297 17.9009 28.5738 17.9145 28.3472 17.9282C28.1205 17.9556 27.8513 17.9692 27.5255 17.9692C27.1997 17.9692 26.8597 17.9145 26.4913 17.9145V17.9145ZM22.0005 15.918H24.9897C25.358 15.918 25.6272 15.918 25.7972 15.9043C25.9105 15.8906 26.0238 15.8633 26.123 15.7949V15.6581C26.123 15.4803 26.0947 15.3162 26.038 15.1521C25.783 14.3863 25.0322 13.8667 24.1963 13.894C23.4172 13.853 22.6805 14.2496 22.3122 14.9333C22.1422 15.2479 22.043 15.5761 22.0005 15.918Z" fill="#808080"/>
</svg>
