<svg width="33" height="32" viewBox="0 0 33 32" fill="none" xmlns="http://www.w3.org/2000/svg">
<path d="M5.84375 0H27.1563C30.3875 0 33 2.59829 33 5.81197V26.188C33 29.4017 30.3875 32 27.1563 32H5.84375C2.6125 32 0 29.4017 0 26.188V5.81197C0 2.59829 2.6125 0 5.84375 0Z" fill="#3E3E3E"/>
<path d="M15.9499 19.1453H10.8349L9.78991 22.359C9.76241 22.482 9.65241 22.5641 9.52866 22.5504H6.94366C6.79241 22.5504 6.75116 22.4684 6.79241 22.3043L11.2199 9.62735C11.2612 9.4906 11.3024 9.34017 11.3574 9.17607C11.4124 8.88889 11.4399 8.58803 11.4399 8.28718C11.4262 8.2188 11.4812 8.15043 11.5499 8.13675H15.1112C15.2212 8.13675 15.2762 8.17778 15.2899 8.24615L20.3087 22.3316C20.3499 22.482 20.3087 22.5504 20.1712 22.5504H17.2974C17.2012 22.5641 17.1049 22.4957 17.0774 22.4L15.9499 19.1453ZM11.6324 16.3692H15.1249C15.0424 16.082 14.9324 15.7402 14.8087 15.3846C14.6849 15.0154 14.5612 14.6188 14.4374 14.2085C14.2999 13.7846 14.1762 13.3744 14.0387 12.9504C13.9012 12.5265 13.7774 12.1299 13.6674 11.7333C13.5574 11.3504 13.4612 10.9949 13.3649 10.6667H13.3374C13.2137 11.2547 13.0624 11.8427 12.8699 12.4308C12.6637 13.0872 12.4574 13.7709 12.2374 14.4547C12.0449 15.1521 11.8387 15.7949 11.6324 16.3692ZM23.3749 10.5299C22.9212 10.5436 22.4812 10.3658 22.1512 10.0513C21.8349 9.7094 21.6699 9.25812 21.6837 8.79316C21.6699 8.3282 21.8487 7.8906 22.1787 7.57607C22.5087 7.26154 22.9487 7.09743 23.4024 7.09743C23.9387 7.09743 24.3512 7.26154 24.6537 7.57607C24.9562 7.90427 25.1212 8.34188 25.1074 8.79316C25.1212 9.25812 24.9562 9.7094 24.6262 10.0513C24.3099 10.3795 23.8424 10.5573 23.3749 10.5299ZM21.8349 22.4V11.8701C21.8349 11.7333 21.8899 11.6786 22.0137 11.6786H24.7362C24.8599 11.6786 24.9149 11.747 24.9149 11.8701V22.4C24.9149 22.5504 24.8599 22.6188 24.7362 22.6188H22.0412C21.9037 22.6188 21.8349 22.5368 21.8349 22.4V22.4Z" fill="#808080"/>
</svg>
