<svg width="32" height="27" viewBox="0 0 32 27" fill="none" xmlns="http://www.w3.org/2000/svg">
<path d="M16.5307 0.460345C16.3985 0.448613 16.2643 0.448761 16.1296 0.462992C15.5896 0.521947 15.1053 0.787934 14.7651 1.21079C14.0624 2.08427 14.202 3.36689 15.0761 4.06961L17.3129 5.86829H5.80876C4.68794 5.86829 3.77582 6.7804 3.77582 7.90123C3.77582 9.02206 4.68794 9.93417 5.80876 9.93417H10.8474L1.19759 17.7337C0.759151 18.0881 0.485603 18.5921 0.425971 19.1526C0.367015 19.713 0.528179 20.264 0.882588 20.7024C1.237 21.1408 1.741 21.4144 2.30141 21.474C2.86183 21.533 3.41283 21.3718 3.85126 21.0174L8.5445 17.2242C8.93686 22.6054 13.9426 26.8753 20.0394 26.8753C26.3916 26.8753 31.5594 22.2396 31.5594 16.5412C31.5594 13.0202 29.588 9.77923 26.2824 7.86284L17.6239 0.90108C17.3063 0.645946 16.9272 0.49554 16.5307 0.460345ZM20.0394 10.6118C23.4018 10.6118 26.1382 12.8914 26.1382 15.6942C26.1382 18.4969 23.4018 20.7765 20.0394 20.7765C16.6769 20.7765 13.9405 18.4969 13.9405 15.6942C13.9405 12.8914 16.6769 10.6118 20.0394 10.6118ZM20.0394 11.9671C18.961 11.9671 17.9268 12.3241 17.1643 12.9595C16.4018 13.5949 15.9735 14.4567 15.9735 15.3553C15.9735 16.254 16.4018 17.1158 17.1643 17.7512C17.9268 18.3866 18.961 18.7436 20.0394 18.7436C21.1177 18.7436 22.1519 18.3866 22.9144 17.7512C23.6769 17.1158 24.1052 16.254 24.1052 15.3553C24.1052 14.4567 23.6769 13.5949 22.9144 12.9595C22.1519 12.3241 21.1177 11.9671 20.0394 11.9671V11.9671Z" fill="#808080"/>
</svg>
