<svg width="20" height="20" viewBox="0 0 20 20" fill="none" xmlns="http://www.w3.org/2000/svg">
<path d="M17.3334 6.95485C17.3334 6.55097 17.3334 6.34903 17.2535 6.25552C17.1842 6.17438 17.0803 6.13133 16.9739 6.1397C16.8513 6.14935 16.7085 6.29214 16.4229 6.57772L14 9.0006L16.4229 11.4235C16.7085 11.709 16.8513 11.8518 16.9739 11.8615C17.0803 11.8699 17.1842 11.8268 17.2535 11.7457C17.3334 11.6521 17.3334 11.4502 17.3334 11.0463V6.95485Z" stroke="#808080" stroke-linecap="round" stroke-linejoin="round"/>
<path d="M4 7.53398C4 6.41388 4 5.85383 4.21798 5.426C4.40973 5.04968 4.71569 4.74372 5.09201 4.55197C5.51984 4.33398 6.07989 4.33398 7.2 4.33398H10.8C11.9201 4.33398 12.4801 4.33398 12.908 4.55197C13.2843 4.74372 13.5903 5.04968 13.782 5.426C14 5.85383 14 6.41388 14 7.53398V10.4673C14 11.5875 14 12.1475 13.782 12.5753C13.5903 12.9517 13.2843 13.2576 12.908 13.4494C12.4801 13.6673 11.9201 13.6673 10.8 13.6673H7.2C6.07989 13.6673 5.51984 13.6673 5.09201 13.4494C4.71569 13.2576 4.40973 12.9517 4.21798 12.5753C4 12.1475 4 11.5875 4 10.4673V7.53398Z" stroke="#808080" stroke-linecap="round" stroke-linejoin="round"/>
</svg>
