<svg width="34" height="32" viewBox="0 0 34 32" fill="none" xmlns="http://www.w3.org/2000/svg">
<path d="M6.02083 0H27.9792C31.3083 0 34 2.59829 34 5.81197V26.188C34 29.4017 31.3083 32 27.9792 32H6.02083C2.69167 32 0 29.4017 0 26.188V5.81197C0 2.59829 2.69167 0 6.02083 0Z" fill="#3E3E3E"/>
<path d="M8.0752 22.4273V8.34185C8.0752 8.24613 8.1177 8.19143 8.21686 8.19143C8.4577 8.19143 8.68436 8.19143 9.0102 8.17775C9.3502 8.16408 9.70436 8.16408 10.0869 8.1504C10.4694 8.13673 10.8802 8.13673 11.3194 8.12305C11.7585 8.10938 12.1835 8.10938 12.6085 8.10938C13.7702 8.10938 14.7335 8.24613 15.5269 8.53331C16.2352 8.76579 16.8869 9.14869 17.4252 9.65467C17.8785 10.0923 18.2327 10.6256 18.4594 11.2136C18.6719 11.788 18.7852 12.376 18.7852 12.9914C18.7852 14.1675 18.5019 15.1384 17.9352 15.9042C17.3685 16.6701 16.5752 17.2444 15.6544 17.5726C14.691 17.9145 13.6285 18.0376 12.4669 18.0376C12.1269 18.0376 11.9002 18.0376 11.7585 18.0239C11.6169 18.0102 11.4185 18.0102 11.1494 18.0102V22.4C11.1635 22.4957 11.0927 22.5777 10.9935 22.5914H10.9369H8.2452C8.13186 22.5914 8.0752 22.5367 8.0752 22.4136V22.4273ZM11.1635 10.8444V15.4393C11.3619 15.453 11.546 15.4666 11.716 15.4666H12.4669C13.0194 15.4666 13.5719 15.3846 14.096 15.2205C14.5494 15.0974 14.946 14.8376 15.2577 14.4957C15.5552 14.1538 15.6969 13.6889 15.6969 13.0872C15.711 12.6632 15.5977 12.2393 15.371 11.8701C15.1302 11.5145 14.7902 11.241 14.3794 11.0906C13.8552 10.8854 13.2885 10.8034 12.7077 10.8171C12.3394 10.8171 12.0135 10.8171 11.7444 10.8307C11.461 10.8171 11.2627 10.8307 11.1635 10.8444V10.8444Z" fill="#808080"/>
<path d="M20.825 11.6513H23.3042C23.4459 11.6513 23.5592 11.747 23.6017 11.8701C23.6442 11.9795 23.6725 12.0889 23.6867 12.212C23.715 12.3487 23.7434 12.4991 23.7575 12.6359C23.7717 12.7863 23.7859 12.9504 23.7859 13.1282C24.2109 12.6496 24.7209 12.253 25.3017 11.9521C25.9534 11.5966 26.7042 11.4188 27.455 11.4188C27.5542 11.4051 27.6392 11.4735 27.6534 11.5692V11.6239V14.2906C27.6534 14.4 27.5825 14.441 27.4267 14.441C26.9167 14.4273 26.3925 14.4684 25.8967 14.5778C25.4859 14.6598 25.0892 14.7829 24.7067 14.947C24.4375 15.0701 24.1825 15.2342 23.9842 15.453V22.4273C23.9842 22.5641 23.9275 22.6188 23.8 22.6188H21.0092C20.8959 22.6325 20.7967 22.5641 20.7825 22.4547V22.4V14.8239C20.7825 14.4957 20.7825 14.1538 20.7684 13.7983C20.7542 13.4427 20.7542 13.0872 20.74 12.7316C20.74 12.4171 20.7117 12.1162 20.6834 11.8017C20.6692 11.7333 20.7117 11.6649 20.7825 11.6513C20.7825 11.6376 20.8109 11.6376 20.825 11.6513V11.6513Z" fill="#808080"/>
</svg>
