<svg width="33" height="32" viewBox="0 0 33 32" fill="none" xmlns="http://www.w3.org/2000/svg">
<path d="M5.84375 0H27.1563C30.3875 0 33 2.59829 33 5.81197V26.188C33 29.4017 30.3875 32 27.1563 32H5.84375C2.6125 32 0 29.4017 0 26.188V5.81197C0 2.59829 2.6125 0 5.84375 0Z" fill="#3E3E3E"/>
<path d="M7.4248 22.441V8.36923C7.4248 8.2735 7.46605 8.2188 7.5623 8.2188C7.79605 8.2188 8.01605 8.2188 8.3323 8.20513C8.6623 8.19145 9.00605 8.19145 9.3773 8.17777C9.74855 8.1641 10.1473 8.1641 10.5736 8.15042C10.9998 8.13675 11.4123 8.13675 11.8248 8.13675C12.9523 8.13675 13.8873 8.2735 14.6573 8.56068C15.3448 8.79316 15.9773 9.17607 16.4998 9.68205C16.9398 10.1197 17.2836 10.653 17.5036 11.241C17.7098 11.8154 17.8198 12.4034 17.8198 13.0188C17.8198 14.1949 17.5448 15.1658 16.9948 15.9316C16.4448 16.6974 15.6748 17.2718 14.7811 17.6C13.8461 17.9419 12.8148 18.065 11.6873 18.065C11.3573 18.065 11.1373 18.065 10.9998 18.0513C10.8623 18.0376 10.6698 18.0376 10.4086 18.0376V22.4273C10.4223 22.5231 10.3536 22.6051 10.2573 22.6188C10.2436 22.6188 10.2298 22.6188 10.2023 22.6188H7.5898C7.4798 22.6188 7.4248 22.5641 7.4248 22.441ZM10.4223 10.8581V15.453C10.6148 15.4667 10.7936 15.4803 10.9586 15.4803H11.6873C12.2236 15.4803 12.7598 15.3983 13.2686 15.2342C13.7086 15.1111 14.0936 14.8513 14.3961 14.5094C14.6848 14.1675 14.8223 13.7026 14.8223 13.1009C14.8361 12.6769 14.7261 12.253 14.5061 11.8838C14.2723 11.5282 13.9423 11.2547 13.5436 11.1043C13.0348 10.8991 12.4848 10.8171 11.9211 10.8308C11.5636 10.8308 11.2473 10.8308 10.9861 10.8444C10.7111 10.8308 10.5186 10.8444 10.4223 10.8581Z" fill="#808080"/>
<path d="M26.3996 14.6188C25.9871 14.4 25.5471 14.2496 25.0796 14.1538C24.5708 14.0444 24.0621 13.9761 23.5396 13.9761C23.2646 13.9624 22.9758 14.0034 22.7146 14.0718C22.5358 14.1128 22.3846 14.2085 22.2883 14.3453C22.2196 14.4547 22.1783 14.5915 22.1783 14.7145C22.1783 14.8376 22.2333 14.9607 22.3158 15.0701C22.4396 15.2205 22.6046 15.3436 22.7833 15.4393C23.0996 15.6034 23.4296 15.7538 23.7596 15.8906C24.5021 16.1368 25.2171 16.4786 25.8771 16.8889C26.3308 17.1761 26.7021 17.559 26.9633 18.0239C27.1833 18.4615 27.2933 18.9402 27.2796 19.4325C27.2933 20.0752 27.1008 20.7179 26.7433 21.2513C26.3583 21.7983 25.8221 22.2222 25.2033 22.4684C24.5296 22.7556 23.7046 22.906 22.7146 22.906C22.0821 22.906 21.4633 22.8513 20.8446 22.7282C20.3633 22.6462 19.8821 22.4957 19.4421 22.2906C19.3458 22.2359 19.2771 22.1402 19.2908 22.0308V19.6513C19.2908 19.6103 19.3046 19.5556 19.3458 19.5282C19.3871 19.5009 19.4283 19.5145 19.4696 19.5419C20.0058 19.8564 20.5696 20.0752 21.1746 20.212C21.6971 20.3487 22.2471 20.4171 22.7971 20.4171C23.3196 20.4171 23.6908 20.3487 23.9383 20.2256C24.1583 20.1299 24.3096 19.8974 24.3096 19.6513C24.3096 19.4598 24.1996 19.2821 23.9796 19.1043C23.7596 18.9265 23.3058 18.7214 22.6321 18.4615C21.9308 18.2154 21.2846 17.8872 20.6796 17.4769C20.2533 17.1761 19.8958 16.7795 19.6346 16.3145C19.4146 15.8769 19.3046 15.3983 19.3183 14.9197C19.3183 14.3316 19.4833 13.7709 19.7858 13.265C20.1296 12.7179 20.6383 12.2803 21.2296 12.0068C21.8758 11.6786 22.6871 11.5282 23.6633 11.5282C24.2271 11.5282 24.8046 11.5692 25.3683 11.6513C25.7808 11.706 26.1796 11.8154 26.5508 11.9658C26.6058 11.9795 26.6608 12.0342 26.6883 12.0889C26.7021 12.1436 26.7158 12.1983 26.7158 12.253V14.4821C26.7158 14.5368 26.6883 14.5915 26.6471 14.6188C26.5233 14.6462 26.4546 14.6462 26.3996 14.6188Z" fill="#808080"/>
</svg>
