<svg width="33" height="32" viewBox="0 0 33 32" fill="none" xmlns="http://www.w3.org/2000/svg">
<path d="M5.84375 0H27.1563C30.3837 0 33 2.60212 33 5.81197V26.188C33 29.3979 30.3837 32 27.1563 32H5.84375C2.61635 32 0 29.3979 0 26.188V5.81197C0 2.60212 2.61635 0 5.84375 0Z" fill="#3E3E3E"/>
<path d="M7.1377 22.4404V8.37143C7.1377 8.26887 7.18197 8.21731 7.27052 8.21731C7.50647 8.21731 7.78683 8.21362 8.11175 8.20623C8.43611 8.19899 8.78673 8.19174 9.16321 8.18422C9.53954 8.17697 9.93802 8.16958 10.3586 8.1622C10.7792 8.15495 11.1961 8.15126 11.6095 8.15112C12.7309 8.15112 13.6754 8.29061 14.4431 8.56945C15.1355 8.80234 15.7669 9.18606 16.2915 9.69232C16.7362 10.1312 17.0798 10.6608 17.2988 11.2446C17.5059 11.8127 17.6108 12.4127 17.6087 13.0169C17.6087 14.1913 17.3357 15.1601 16.7896 15.9232C16.2399 16.6894 15.4673 17.2695 14.5759 17.5855C13.5823 17.9413 12.5325 18.1167 11.4766 18.103C11.1519 18.103 10.9232 18.0993 10.7904 18.0919C10.6576 18.0847 10.4583 18.081 10.1927 18.0808V22.4182C10.2064 22.5139 10.1396 22.6027 10.0433 22.6164C10.0268 22.6187 10.0101 22.6187 9.99357 22.6164H7.29266C7.18926 22.6165 7.1377 22.5581 7.1377 22.4404ZM10.1927 10.8594V15.4169C10.3843 15.4317 10.5614 15.4391 10.724 15.4389H11.4545C11.9903 15.4467 12.5241 15.3725 13.0373 15.2187C13.4759 15.0892 13.8678 14.8369 14.1663 14.4922C14.4541 14.1547 14.598 13.6851 14.598 13.0831C14.6097 12.6572 14.4983 12.2369 14.2771 11.8721C14.0445 11.5195 13.7083 11.2465 13.3142 11.0906C12.7997 10.8916 12.2499 10.7981 11.6982 10.8155C11.344 10.8155 11.0303 10.8192 10.7572 10.8264C10.4839 10.8339 10.2958 10.845 10.1927 10.8594Z" fill="#808080"/>
<path d="M25.8213 20.4368V22.2422C25.8213 22.4039 25.7623 22.4993 25.6442 22.5284C25.3536 22.619 25.0579 22.6925 24.7587 22.7486C24.408 22.8107 24.0522 22.8402 23.6961 22.8367C22.7365 22.8367 21.9839 22.5871 21.438 22.0881C20.8919 21.5892 20.6188 20.7894 20.619 19.6882V14.228H19.3128C19.1946 14.228 19.1357 14.1619 19.1357 14.0298V11.8501C19.1357 11.7328 19.2022 11.6741 19.335 11.674H20.6411C20.6557 11.4246 20.6741 11.1347 20.6965 10.8044C20.7186 10.4741 20.7481 10.1439 20.7851 9.81363C20.8218 9.48338 20.8549 9.21548 20.8846 9.01008C20.8992 8.96604 20.9217 8.92502 20.951 8.88905C20.9796 8.85322 21.018 8.82642 21.0617 8.81206L23.6961 8.4818C23.7538 8.47237 23.7912 8.47237 23.8178 8.48782C23.847 8.50259 23.851 8.54061 23.851 8.61391C23.8213 8.95168 23.7992 9.41049 23.7846 9.98991C23.7698 10.5699 23.7549 11.1314 23.7403 11.6741H25.7991C25.8877 11.6741 25.932 11.7328 25.932 11.8503V14.074C25.9432 14.1468 25.8941 14.2151 25.8213 14.2281H23.7182V18.9398C23.7182 19.4389 23.803 19.7949 23.9729 20.0075C24.1423 20.2205 24.4559 20.327 24.9136 20.3269C25.0465 20.3269 25.1716 20.3234 25.29 20.3158C25.4079 20.3085 25.5261 20.2976 25.6442 20.2828C25.6843 20.2679 25.7291 20.2719 25.7659 20.2938C25.8026 20.3158 25.8213 20.3635 25.8213 20.4368Z" fill="#808080"/>
</svg>
