<?xml version="1.0" encoding="UTF-8"?><svg id="video-icon" xmlns="http://www.w3.org/2000/svg" viewBox="0 0 14.33 10.33"><path d="M13.83,3.12c0-.4,0-.61-.08-.7-.07-.08-.17-.12-.28-.12-.12,0-.27,.15-.55,.44l-2.42,2.42,2.42,2.42c.29,.29,.43,.43,.55,.44,.11,0,.21-.03,.28-.12,.08-.09,.08-.3,.08-.7V3.12Z" style="fill:none; stroke:#000; stroke-linecap:round; stroke-linejoin:round;"/><path d="M.5,3.7c0-1.12,0-1.68,.22-2.11,.19-.38,.5-.68,.87-.87,.43-.22,.99-.22,2.11-.22h3.6c1.12,0,1.68,0,2.11,.22,.38,.19,.68,.5,.87,.87,.22,.43,.22,.99,.22,2.11v2.93c0,1.12,0,1.68-.22,2.11-.19,.38-.5,.68-.87,.87-.43,.22-.99,.22-2.11,.22H3.7c-1.12,0-1.68,0-2.11-.22-.38-.19-.68-.5-.87-.87-.22-.43-.22-.99-.22-2.11V3.7Z" style="fill:none; stroke:#000; stroke-linecap:round; stroke-linejoin:round;"/></svg>